<svg width="63" height="56" viewBox="0 0 63 56" fill="none" xmlns="http://www.w3.org/2000/svg">
<g id="Frame" clip-path="url(#clip0_180_11511)">
<g id="Layer_4">
<path id="Vector" d="M1.3514 2.97572C9.67074 3.08317 28.9963 0.17365 29.4344 0.17365C30.0394 0.17365 32.6303 -0.00406186 33.2352 7.09829e-05C33.4772 7.09829e-05 34.6496 0.20258 37.0236 0.553872C41.4127 1.31845 45.8019 2.2938 50.191 3.05837C52.928 3.53365 55.7108 4.02546 58.1974 5.25704C59.0027 5.65793 59.7829 6.14147 60.3795 6.81099C61.7021 8.29468 61.919 10.419 62.0776 12.3903C63.0288 24.264 63.3125 36.1955 62.6033 48.0898C62.4781 50.181 59.4407 50.8795 57.3547 51.2266C48.5472 52.7021 39.7188 54.0494 30.8738 55.2686C29.4427 55.4669 27.9866 55.6612 26.5556 55.4587C24.603 55.1859 22.8423 54.2023 21.0149 53.4625C17.9567 52.2268 14.6732 51.6688 11.4189 51.1192C8.94061 50.7018 6.24955 50.2967 3.85054 49.5487C3.05783 49.3007 2.25677 49.0032 1.65597 48.4411C0.462728 47.3211 0.375112 45.4985 0.366767 43.8702C0.304185 31.2072 0.23743 18.5441 0.174847 5.87697C0.170675 4.98014 0.475244 3.19062 1.3514 2.97572Z" fill="#F0F2DA"/>
<path id="Vector_2" d="M6.70437 18.3003C7.56801 19.0112 8.27311 20.2841 8.83218 21.2429C10.935 19.1517 17.5395 19.2839 14.231 23.4788C13.0962 24.917 11.4857 25.6278 10.4635 27.2975C9.58735 28.7275 9.6541 30.3723 9.28695 31.794C10.3926 31.9139 11.6359 32.1577 12.633 32.6578C13.0586 30.9592 13.9515 29.0829 15.2991 28.0786C16.7343 27.0165 18.6952 26.6032 19.3211 24.6194C19.8259 23.02 19.5171 19.2757 18.6744 17.8085C17.5187 15.7999 14.8109 15.676 12.9334 15.9157C11.2228 16.1306 8.28145 17.7837 6.7002 18.3003H6.70437Z" fill="#FF6188"/>
<path id="Vector_3" d="M12.3328 35.4267H10.205C9.842 36.5509 9.90876 37.7081 9.90041 38.8859C11.0519 39.2868 11.8989 39.9274 13.0921 39.5761C13.4176 38.485 12.3328 36.5963 12.3328 35.4226V35.4267Z" fill="#FF6188"/>
<path id="Vector_4" d="M46.4148 36.8195C45.7305 36.1789 45.7472 34.0381 46.0309 33.133C46.4941 31.6328 47.6581 30.9137 48.8138 30.3434C49.7442 29.8846 50.9875 29.0994 51.6258 28.153C52.4978 26.8594 52.9067 24.3673 52.8274 22.7555C52.6772 19.6434 51.6843 18.0482 49.2352 17.1513C47.4453 16.4942 45.1798 16.1594 43.3524 16.7876C41.6335 17.3786 39.8394 18.416 38.1914 19.2343C38.1914 20.6229 38.279 21.9124 38.5544 23.1811C40.5612 22.5199 42.8726 21.8876 44.9587 21.871C45.7598 21.8669 47.5121 22.2182 47.9627 23.2431C48.6511 24.7888 47.245 26.0948 46.323 26.7808C44.8502 27.8761 43.1772 28.8018 42.3302 30.707C41.5333 32.5007 41.7503 34.9184 41.7503 36.9063C43.1813 36.9063 44.9754 36.8195 46.4106 36.8195H46.4148Z" fill="#F9FF73"/>
<path id="Vector_5" d="M45.2514 40.3367C44.3043 39.9275 43.4365 39.2539 42.5228 40.1218C41.68 40.9235 41.6049 42.7172 42.1181 43.7793C43.1111 45.8251 45.9732 44.8745 46.4196 42.8246C46.6616 41.7088 46.1442 40.9525 45.2514 40.3367Z" fill="#F9FF73"/>
</g>
<g id="Layer_2">
<path id="Vector_6" d="M41.9345 36.9601C43.3071 36.9064 44.83 36.8154 46.2026 36.7617C45.5893 34.9143 46.0691 32.633 47.3458 31.3394C48.7852 29.8805 51.0757 29.5747 51.9769 27.6075C52.3482 26.7933 52.4025 25.8386 52.4317 24.9129C52.4943 22.9167 52.4317 20.7552 51.4012 19.1682C50.4499 17.701 48.8478 17.0357 47.2999 16.7505C44.1875 16.176 40.8664 17.3952 38.1211 19.2178C38.4757 20.4494 38.8304 21.6851 39.185 22.9167C41.0792 21.3958 43.3238 21.2801 45.6102 21.4909C46.6365 21.5859 47.7839 21.9744 48.247 23.0572C48.8436 24.4417 47.9633 26.1279 46.8702 26.9958C45.7771 27.8637 44.4461 28.3059 43.4615 29.335C42.602 30.2318 42.068 31.5461 42.0137 32.8934" stroke="black" stroke-miterlimit="10"/>
<path id="Vector_7" d="M45.3562 40.6921C44.5718 39.6299 42.9029 39.8944 42.3188 41.1219C41.7306 42.3494 42.3188 44.0975 43.437 44.6059C44.5551 45.1142 45.9319 44.3703 46.4159 43.085" stroke="black" stroke-miterlimit="10"/>
<path id="Vector_8" d="M9.63774 31.7362C9.57933 30.0087 9.59602 28.058 10.6808 26.8471C11.2107 26.2519 11.9241 25.9337 12.5958 25.5659C13.3426 25.1567 14.0728 24.6608 14.6152 23.9458C15.1575 23.2308 15.4913 22.2637 15.3495 21.3338C15.095 19.6724 13.376 18.7178 11.9116 18.9905C10.4513 19.2633 9.29562 20.3378 8.30681 21.5942C7.59754 20.7263 6.9592 19.784 6.4043 18.7798C7.38476 17.7176 8.61138 16.548 9.87556 15.9942C11.4109 15.3206 13.1173 15.5148 14.7528 15.7338C15.9503 15.895 17.2645 16.1306 18.0489 17.1679C18.633 17.9408 18.7999 19.0071 18.9209 20.0196C19.1879 22.2183 19.2838 24.7145 17.9946 26.3842C17.1977 27.4133 16.017 27.9216 14.9698 28.6077C13.9267 29.2937 12.9046 30.3724 12.8837 31.7486" stroke="black" stroke-miterlimit="10"/>
<path id="Vector_9" d="M12.5497 35.4227C11.5943 35.2326 10.6138 35.1871 9.65004 35.2945C9.5666 36.5055 9.63752 37.7329 9.86282 38.9232C10.9726 39.01 12.0866 39.1009 13.1964 39.1877C13.2632 38.4066 13.43 37.4312 13.3967 36.646" stroke="black" stroke-miterlimit="10"/>
<path id="Vector_10" d="M39.5734 21.3133C39.5525 20.7182 39.273 20.1685 38.9893 19.7098C40.1908 19.4205 41.2548 18.6145 42.4313 18.3335C43.7455 18.0236 44.9889 17.7632 46.3657 17.7632" stroke="black" stroke-miterlimit="10"/>
<path id="Vector_11" d="M45.2014 41.5683C43.616 39.6466 41.847 42.9942 43.5534 43.8579" stroke="black" stroke-miterlimit="10"/>
<path id="Vector_12" d="M8.63201 19.627C8.37333 19.1971 7.94359 18.8169 7.61816 18.4739C10.1173 17.0729 14.2603 15.5602 16.8178 17.5771C17.5772 18.1763 17.9568 18.9781 18.1613 19.9741" stroke="black" stroke-miterlimit="10"/>
<path id="Vector_13" d="M42.293 35.8442C43.1107 35.8442 44.4416 35.7161 45.1092 36.0715C45.1092 33.7695 45.4763 32.5751 46.8114 30.9261C47.8962 29.5871 49.5567 29.1697 50.6916 27.8389C51.284 27.1405 51.793 25.9833 51.7096 24.9749" stroke="black" stroke-miterlimit="10"/>
<path id="Vector_14" d="M37.6706 0.648926C38.4258 0.78531 39.1726 0.94649 39.9236 1.1118C46.3905 2.52937 52.8574 3.95107 59.3243 5.36863C60.0043 5.51741 60.7303 5.69512 61.1976 6.2076C61.7108 6.77793 61.765 7.61276 61.79 8.37734C61.9027 11.5927 62.0153 14.8039 62.128 18.0193C62.4618 27.5207 63 36.3732 62.3491 45.8581C62.2698 47.0359 62.1655 48.2551 61.5689 49.2801C60.9723 50.3009 59.7415 51.0613 58.5983 50.7348C49.1191 52.5119 39.6566 54.1692 30.1065 55.4959C27.9035 55.8017 25.613 56.1323 23.6688 55.066C16.8806 51.3465 8.70733 50.896 1.57289 47.879C0.191895 45.9242 0.104279 43.3412 0.275338 40.9607C0.446398 38.5801 0.48812 33.3976 0.48812 33.2529V8.53025" stroke="black" stroke-miterlimit="10"/>
<path id="Vector_15" d="M29.998 0.578712C30.8492 0.500188 31.7045 0.421664 32.5598 0.37207" stroke="black" stroke-miterlimit="10"/>
<path id="Vector_16" d="M4.27246 2.97576C11.336 2.31864 18.3953 1.66152 25.4588 1.00439" stroke="black" stroke-miterlimit="10"/>
<path id="Vector_17" d="M24.1068 53.8675C25.0164 53.9254 25.8383 53.2187 26.2013 52.3921C26.5643 51.5614 26.5684 50.6274 26.5684 49.7223C26.5684 37.5346 26.5643 25.3468 26.5601 13.1591C26.5601 11.9192 26.2013 10.3735 25.2166 9.60481C24.6409 9.15433 23.8941 8.99315 23.1764 8.84023C16.1421 7.35654 9.10783 5.87285 2.0777 4.38503C1.69803 4.30651 1.29333 4.22798 0.93869 4.37676C0.0875645 4.73219 0.191869 5.94311 0.4422 6.82341" stroke="black" stroke-miterlimit="10"/>
<path id="Vector_18" d="M30.92 54.0329C29.6892 54.4627 28.1705 53.7808 27.6865 52.5781" stroke="black" stroke-miterlimit="10"/>
<path id="Vector_19" d="M26.377 9.56348C36.9701 8.7865 59.0493 5.31905 60.5346 7.18296" stroke="black" stroke-miterlimit="10"/>
<path id="Vector_20" d="M27.3782 12.1838C27.3657 11.4399 27.7621 10.4191 30.2403 10.2207" stroke="black" stroke-miterlimit="10"/>
</g>
</g>
<defs>
<clipPath id="clip0_180_11511">
<rect width="63" height="56" fill="white"/>
</clipPath>
</defs>
</svg>
