<svg width="144" height="120" viewBox="0 0 144 120" fill="none" xmlns="http://www.w3.org/2000/svg">
<g id="Frame" clip-path="url(#clip0_132_1645)">
<g id="Layer_4">
<path id="Vector" d="M31.4854 4.53113V52.9619C30.8632 54.2236 30.079 54.6113 28.7131 54.8124C25.7936 55.2476 22.701 55.0245 19.7373 55.0245C17.3405 55.0245 14.9254 54.9404 12.5286 55.0245C11.3836 55.0648 9.04211 55.4561 8.03702 54.6661C7.1387 53.9603 7.00616 52.4755 6.97303 51.4113C6.93989 51.4113 7.10925 51.4113 7.07611 51.4113V5.56243C7.41482 4.4653 7.53632 2.293 8.54877 1.53598C9.50231 0.822846 11.8144 1.22878 12.9741 1.22878C13.206 1.93094 13.7546 2.58191 13.8908 3.18898C15.9894 3.18898 17.9738 3.29869 20.0502 3.40109C21.6591 3.47789 23.3931 3.80337 24.9762 3.49983C25.6794 3.36452 25.7199 2.40637 26.0955 1.84683C27.5681 1.84683 31.791 2.0626 31.4854 4.53113Z" fill="white"/>
<path id="Vector_2" d="M85.9553 94.7807C82.8516 92.4987 78.7871 91.3248 75.3558 89.4633C69.5315 86.2999 63.9906 83.0232 58.0889 80.0719C55.2393 78.6493 52.3861 76.9963 49.5733 75.57C46.7605 74.1438 43.3881 73.0613 41.0429 70.8268C40.0342 69.865 39.1248 69.993 38.0277 69.364C36.8606 68.6947 36.139 67.711 34.8062 67.1551C33.0059 66.4054 30.9921 66.3066 29.1917 65.6191C27.3141 64.9023 25.5837 63.7101 23.7908 62.975C21.9978 62.24 20.4552 61.0551 18.6917 60.0969C16.8987 59.1205 14.6087 58.3159 13.3864 56.5788C17.289 56.1582 21.4676 56.5788 25.5395 56.5788C27.4908 56.5788 29.5709 56.6995 31.4743 56.3777C34.0478 55.9425 33.9705 54.9368 33.9705 52.4499V32.0032C33.9705 31.9337 33.7643 31.8642 33.7643 31.7984C36.6102 31.7362 39.9237 30.7305 38.7272 27.3587C38.1381 25.702 35.6383 21.4159 33.7643 21.4708L33.9705 10.3203C35.8739 10.8323 37.8767 12.8985 39.585 14.0359C43.0862 16.3691 44.9418 18.9254 46.0757 22.9555C47.2097 26.9856 48.5535 31.2279 49.9783 35.1007C51.2595 38.5786 49.1168 42.3856 50.4458 45.8379C51.6645 49.005 54.26 53.2874 57.463 54.0993C59.6757 54.6588 61.2036 56.4435 63.28 57.2407C67.2599 58.773 71.2692 60.4736 75.3411 61.7463C79.2179 62.9567 82.6749 62.6203 86.2535 64.5256C91.058 67.0819 96.2896 68.9471 101.315 71.0718C108.097 73.9426 115.423 75.4859 122.319 78.0569C128.651 80.4193 135.304 82.5843 141.872 84.0399C144.928 92.8827 144.825 102.515 140.58 110.897C138.997 114.021 137.785 117.872 134.387 119.353C132.035 120.377 127.727 115.919 125.408 115.074C121.87 113.783 118.162 112.942 115.261 110.466C112.747 108.319 109.871 107.76 106.834 106.348C103.487 104.79 100.512 102.201 97.3794 100.347C94.2463 98.4927 88.8969 96.9494 85.9442 94.7771L85.9553 94.7807Z" fill="#F4E7D3"/>
<path id="Vector_3" d="M5.49669 10.1082C2.83119 10.4154 -1.01245 9.73151 0.762103 14.0359C1.57943 16.018 3.83627 18.066 5.49669 19.4009C4.72723 17.7954 4.78982 11.7758 5.49669 10.1082Z" fill="#F4E7D3"/>
<path id="Vector_4" d="M5.70654 23.5334C3.96145 22.2717 1.35116 23.6321 0.508068 25.4789C-0.5412 27.7792 1.35484 29.2896 1.966 31.3815C-0.441795 34.234 0.636925 37.5766 3.00422 40.0561C-1.66042 42.499 3.69637 46.829 5.29052 49.5572L5.70654 23.537V23.5334Z" fill="#F4E7D3"/>
<path id="Vector_5" d="M28.853 14.515C28.8088 15.1038 29.1181 15.7291 28.9708 16.2777C28.853 16.7275 28.1535 16.9104 28.1388 17.6601C27.9032 17.7332 27.4393 17.7296 27.211 17.6601C26.9202 16.9908 26.5962 16.2521 25.9592 15.901C25.9372 14.8149 27.5313 13.8421 28.437 14.5186H28.853V14.515Z" fill="#F7AF39"/>
<path id="Vector_6" d="M18.0621 20.5748C18.0179 21.1636 18.3272 21.7889 18.1799 22.3375C18.0621 22.7873 17.3626 22.9702 17.3479 23.7199C17.1123 23.793 16.6484 23.7894 16.4201 23.7199C16.1293 23.0506 15.8053 22.3119 15.1684 21.9608C15.1463 20.8747 16.7404 19.9019 17.6461 20.5784H18.0621V20.5748Z" fill="#F7AF39"/>
<path id="Vector_7" d="M18.596 20.0226C18.2757 21.1343 18.3861 22.3704 18.1505 23.5004C17.0865 23.5553 15.9415 23.6504 14.9291 23.3286C15.2346 22.5496 15.739 22.0084 16.479 22.0596C16.8177 21.266 17.2816 20.6004 17.9738 20.2274C18.1284 20.1432 18.4266 20.0189 18.596 20.0226Z" fill="#A9DC76"/>
<path id="Vector_8" d="M24.0558 47.8054C23.7355 48.9172 23.846 50.1533 23.6104 51.2833C22.5464 51.3382 21.4014 51.4333 20.3889 51.1114C20.6945 50.3325 21.1989 49.7912 21.9389 49.8424C22.2776 49.0489 22.7415 48.3833 23.4336 48.0102C23.5883 47.9261 23.8865 47.8018 24.0558 47.8054Z" fill="#AB9DF2"/>
<path id="Vector_9" d="M29.3169 40.195C28.1977 39.8769 26.9533 39.9866 25.8157 39.7525C25.7604 38.6956 25.6647 37.5583 25.9887 36.5526C26.7729 36.8561 27.3178 37.3571 27.2662 38.0922C28.0651 38.4287 28.7352 38.8895 29.1107 39.577C29.1954 39.7306 29.3206 40.0268 29.3169 40.195Z" fill="#A9DC76"/>
<path id="Vector_10" d="M13.0441 51.3931C11.9248 51.0749 10.6804 51.1846 9.54281 50.9505C9.48759 49.8936 9.39187 48.7563 9.71585 47.7506C10.5 48.0541 11.0449 48.5552 10.9934 49.2902C11.7923 49.6267 12.4624 50.0875 12.8379 50.775C12.9226 50.9286 13.0477 51.2248 13.0441 51.3931Z" fill="#A9DC76"/>
<path id="Vector_11" d="M13.2392 47.1911C13.195 47.7798 13.5043 48.4052 13.357 48.9538C13.2392 49.4036 12.5397 49.5864 12.5249 50.3361C12.2893 50.4093 11.8254 50.4056 11.5972 50.3361C11.3063 49.6669 10.9823 48.9282 10.3454 48.5771C10.3233 47.4909 11.9175 46.5182 12.8232 47.1947H13.2392V47.1911Z" fill="#FF6188"/>
<path id="Vector_12" d="M22.8924 31.312C22.5758 32.3323 22.9035 33.967 21.7916 34.4754C21.1105 33.5245 20.0024 32.2921 20.562 31.0596C21.2541 31.0267 21.9058 30.8256 22.6163 30.9024C22.8225 30.9243 22.8188 31.1072 22.8924 31.3156V31.312Z" fill="#ABD377"/>
<path id="Vector_13" d="M12.9115 30.7598C12.9115 32.0288 13.6221 33.6781 12.9115 34.8484C12.5507 34.3839 12.4624 33.6233 12.039 33.2356C11.6818 32.9065 11.2106 32.943 10.8277 32.687C9.93675 32.0983 10.1208 31.7801 9.58331 30.8987C10.6473 30.8987 11.8475 30.7598 12.9115 30.7598Z" fill="#ABD377"/>
<path id="Vector_14" d="M19.012 42.0492C18.4966 42.3527 18.1983 42.9086 17.8007 43.3731C16.0188 42.8135 16.2728 45.2821 15.5071 46.0281C15.4003 45.955 15.2899 45.9184 15.1536 45.8818C15.0947 44.8834 14.9916 43.9106 14.9916 42.8757C14.9916 41.8407 17.5982 42.0492 18.4561 42.0492H19.012Z" fill="#ABD377"/>
<path id="Vector_15" d="M27.6049 48.7965C28.3781 48.749 29.3758 48.7636 29.8066 49.4511C28.1793 49.9522 27.1631 51.0895 25.9408 49.3487C27.2699 48.3613 25.8157 48.9062 27.6049 48.7965Z" fill="#ABD377"/>
<path id="Vector_16" d="M11.2511 14.237C13.4601 14.5552 11.1959 17.2688 10.0251 16.0692C10.084 16.3801 9.93675 16.8043 9.98461 17.1225C8.67394 16.8775 9.54281 15.2025 9.59067 14.237C10.0067 14.237 10.8424 14.1785 11.2548 14.237H11.2511Z" fill="#ABD377"/>
<path id="Vector_17" d="M29.4053 25.5265C29.6188 26.2615 29.5783 27.11 29.5083 27.8487C28.7168 27.856 27.8884 27.7354 27.1779 27.3587C26.4194 29.8528 24.4682 24.8755 27.049 26.203C27.3583 25.4314 28.1277 25.6728 28.853 25.6654C29.177 25.6654 29.085 25.5265 29.4089 25.5265H29.4053Z" fill="#ABD377"/>
<path id="Vector_18" d="M13.1913 25.2522C13.8614 26.5139 13.4085 28.1449 13.3055 29.5054C12.2378 29.147 10.743 29.381 9.58699 29.381C9.06052 26.8284 12.0905 28.5363 10.9713 25.9397C11.1075 25.084 12.4771 25.3253 13.1876 25.2522H13.1913Z" fill="#78DCE8"/>
<path id="Vector_19" d="M29.269 19.7446C28.2345 19.5508 27.1484 19.6056 26.0807 19.6056C26.0366 20.0189 26.0182 20.615 26.2206 20.988C26.7913 22.0486 26.563 21.0502 27.1226 21.3428C27.8369 21.7158 28.0651 22.3777 29.1328 21.9462C29.1402 21.233 29.1255 20.4212 29.2727 19.7446H29.269Z" fill="#80D1DF"/>
<path id="Vector_20" d="M9.86312 16.1643C10.5663 15.5975 11.9396 15.8718 12.6354 16.4386C12.5286 16.925 12.4587 17.437 12.4955 17.9526C11.6634 17.9526 10.6952 16.1643 9.86312 16.1643Z" fill="#81D1DE"/>
<path id="Vector_21" d="M18.8721 25.2522C18.7322 26.3383 18.4966 27.5817 18.596 28.6935C17.8044 29.2567 17.0313 28.8837 16.0998 28.9678C16.074 28.24 16.2986 27.5817 16.1256 26.9271C16.306 26.8357 16.4643 26.7918 16.6557 26.7662C16.7699 26.4042 17.0092 26.086 17.0975 25.6837C17.5541 25.574 18.434 25.4241 18.8758 25.2485L18.8721 25.2522Z" fill="#81D1DE"/>
<path id="Vector_22" d="M20.6761 47.831C21.2026 47.725 21.7806 47.6299 22.3402 47.6921C23.1391 47.7798 23.9896 48.2662 23.4484 49.2061C22.6752 49.356 21.4014 47.992 20.6761 47.831Z" fill="#81D1DE"/>
<path id="Vector_23" d="M11.1112 49.0708C11.969 48.5588 12.293 49.762 11.9469 50.4349C11.4094 50.146 9.85207 50.8006 10.5589 49.4841C10.6989 49.4365 10.986 49.1476 11.1149 49.0708H11.1112Z" fill="#81D1DE"/>
<path id="Vector_24" d="M18.7359 36.2673C18.7359 37.3535 19.0046 38.5164 18.8758 39.5733C18.202 39.0101 15.8126 39.2515 14.8554 39.2991V36.5453C16.0556 36.5453 17.5357 36.271 18.7359 36.271V36.2673Z" fill="#81D1DE"/>
<path id="Vector_25" d="M24.1405 14.1017C24.1405 15.2427 23.8681 17.0055 24.2804 17.9563C23.1686 17.9563 21.1842 18.205 20.2601 17.8173C19.8183 17.0018 20.1202 15.1659 20.1202 14.1017C21.2541 14.1017 23.1354 13.6738 24.1405 14.1017Z" fill="#81D1DE"/>
<path id="Vector_26" d="M29.5452 42.1882C29.6114 43.3621 29.4053 44.5762 29.4053 45.7684C28.3008 45.7684 26.5557 45.8672 25.8009 45.9074C25.396 45.0809 25.8009 43.0585 25.8009 41.9139C27.2331 41.9139 28.1093 42.1882 29.5415 42.1882H29.5452Z" fill="#81D1DE"/>
<path id="Vector_27" d="M9.58699 34.7533C9.52809 33.6342 10.1945 32.976 11.2253 32.8041C11.2106 32.6249 11.2805 32.6212 11.3873 32.5517C11.6818 33.5977 12.8195 33.5099 13.0514 34.479C11.9285 34.9142 10.7725 34.7496 9.58699 34.7533Z" fill="#FF6188"/>
<path id="Vector_28" d="M20.3963 16.029C21.8321 15.7986 22.4654 16.7824 22.4764 18.0953H20.2601C20.5472 17.4407 20.2453 16.6434 20.4 16.029H20.3963Z" fill="#F06187"/>
<path id="Vector_29" d="M18.7359 14.1017C18.3751 15.1989 18.4597 16.4898 18.4597 17.682C17.3921 17.2834 16.1403 17.7515 14.9953 17.682C14.5388 16.5739 14.9953 14.9355 14.9953 13.6885C15.8384 14.0249 17.775 14.1712 18.7359 14.1017Z" fill="#F06187"/>
<path id="Vector_30" d="M18.8721 47.97V51.5503C17.5982 51.3199 15.9894 51.3309 14.7155 51.5503C14.5278 50.6177 14.8554 49.0086 14.8554 47.8347C16.2139 47.7542 17.5283 48.1309 18.8758 47.9737L18.8721 47.97Z" fill="#F06187"/>
<path id="Vector_31" d="M29.4053 30.7598C29.4053 32.1165 29.5452 33.583 29.2654 34.8886C28.1572 34.5887 26.8318 34.7496 25.661 34.7496C25.5616 33.4221 25.5211 32.2409 25.5211 30.8951C26.4452 30.9975 28.529 31.0743 29.4016 30.7561L29.4053 30.7598Z" fill="#F06187"/>
<path id="Vector_32" d="M18.7359 31.173C18.4229 32.2226 19.0451 33.6415 18.596 34.479C17.462 34.7496 16.1698 34.618 14.9916 34.618C14.9916 33.6452 14.6308 31.568 14.9916 30.7634C16.4312 30.7634 17.4142 31.6484 18.7322 31.1767L18.7359 31.173Z" fill="#F7AF39"/>
<path id="Vector_33" d="M24.1405 19.8836C23.7466 20.8929 24.0006 22.3411 24.0006 23.4639C22.7783 23.4054 21.5045 23.6028 20.2601 23.6028C20.2453 22.4472 20.6466 21.0904 20.2601 20.0226C21.4566 19.7154 22.8703 19.847 24.1405 19.8836Z" fill="#F6AF38"/>
<path id="Vector_34" d="M24.4166 42.3235C24.2215 43.5011 24.2767 44.7042 24.2767 45.9038C22.8961 45.8489 21.5192 45.7648 20.1202 45.7648C20.0576 44.5397 20.2601 43.2853 20.2601 42.0492C21.5413 42.1443 23.1649 41.9139 24.4166 42.3235Z" fill="#F6AF38"/>
<path id="Vector_35" d="M25.8046 49.7583C26.9128 49.7583 28.021 49.7583 29.1328 49.7583C29.2911 50.4239 29.8102 51.3272 29.2727 51.6856C28.4885 52.2049 26.2795 51.9087 25.6684 51.8246C25.7531 51.3272 25.8304 50.274 25.8083 49.7583H25.8046Z" fill="#F6AF38"/>
<path id="Vector_36" d="M14.9916 48.7965C15.9489 48.749 17.6719 48.6246 18.4008 49.3451C17.7713 49.5864 15.5365 50.0143 16.5379 50.9981C16.144 51.3711 15.5623 51.4625 14.9916 51.4113C14.8812 50.636 14.6971 49.4365 14.9916 48.7965Z" fill="#F6AF38"/>
<path id="Vector_37" d="M15.2678 36.8196C15.7132 36.783 16.1992 36.8159 16.6373 36.8452C16.4496 37.0829 16.2692 37.4705 15.971 37.6497C16.792 37.9715 18.1983 37.4778 18.5776 38.5786C17.7566 39.2771 16.7036 39.5404 15.9599 40.2609C14.826 41.358 15.2678 37.7448 15.2678 36.8196Z" fill="#F6AF38"/>
<path id="Vector_38" d="M13.1913 19.4703C13.1913 20.8564 13.3717 22.5313 13.1913 23.7382C12.1273 23.7382 10.5111 23.5992 9.45077 23.5992C9.44341 22.3814 9.33296 21.2184 9.31087 20.0189C10.4411 19.4813 11.9175 19.4301 13.1913 19.4667V19.4703Z" fill="#AB9DF2"/>
<path id="Vector_39" d="M24.4166 36.6806C23.9012 37.7814 24.262 39.065 23.8607 40.1219C22.6715 39.6904 20.9927 39.9829 19.7041 39.9829C19.7041 38.7432 19.844 37.5034 19.844 36.2673C21.4971 36.5233 22.7636 36.6148 24.4166 36.6806Z" fill="#AB9DF2"/>
<path id="Vector_40" d="M13.1913 41.9102V45.9038C12.4697 45.9257 10.2975 45.6587 11.3431 44.5177C9.61644 44.9566 9.72689 43.8229 9.72321 42.4624C11.9653 41.8554 14.4873 42.0858 16.792 42.1882" fill="#F6AF38"/>
<path id="Vector_41" d="M13.4674 20.7101C12.8489 20.7686 12.304 20.7979 11.8512 21.2294C11.9543 21.3245 12.0942 21.4122 12.1789 21.5293C11.7628 21.8877 11.2621 22.0705 10.732 22.2534C10.9566 23.3359 12.2194 24.0819 13.1876 23.7382C13.1876 22.8458 13.1876 21.5512 13.4638 20.7101H13.4674Z" fill="#F7AF39"/>
<path id="Vector_42" d="M20.6761 28.8325C20.7939 28.3351 20.9817 28.0206 21.4861 27.9877C21.14 26.9966 21.7106 25.9617 22.874 26.5139C23.1207 27.0405 23.0397 27.5744 22.5206 27.9072C23.1097 28.2693 24.2694 28.3205 24.0043 28.9714C23.2054 28.9532 21.2504 28.5655 20.6761 28.8325Z" fill="#F5AF37"/>
<path id="Vector_43" d="M9.72689 36.5416C10.813 36.5416 11.8659 36.5489 12.9152 36.4026C13.9461 36.9622 13.4711 39.4673 13.4711 40.5315C12.2083 40.1877 12.2083 38.6225 11.2548 38.052C10.5589 38.5603 9.99934 39.2552 9.73058 40.1182C9.49863 38.8419 9.79685 37.7997 9.73058 36.538L9.72689 36.5416Z" fill="#FF6188"/>
<path id="Vector_44" d="M25.5248 20.8454C26.5041 21.0941 27.535 20.9478 28.5401 21.01C27.8406 21.65 27.5755 22.4545 28.842 22.8019C28.7462 23.0872 28.7131 23.4931 28.5732 23.7345C27.6013 23.7345 26.633 23.5955 25.661 23.5955C25.8193 22.7544 25.5432 21.7085 25.5211 20.8417L25.5248 20.8454Z" fill="#F06187"/>
<path id="Vector_45" d="M16.9319 20.7101C17.4362 21.2952 18.3051 22.1619 18.1578 23.0287C17.5798 22.9738 16.954 23.0287 16.5048 23.42C16.5195 22.791 16.5158 22.1619 16.5158 21.5329C16.6852 21.2989 16.7441 20.9149 16.9319 20.7064V20.7101Z" fill="#F06187"/>
<path id="Vector_46" d="M25.6647 46.0427C25.6647 45.3918 25.65 44.7371 25.6868 44.0898C26.1728 44.1118 26.7839 44.1301 27.3141 44.1447C27.049 44.9858 28.5217 44.8176 28.5732 43.8887C30.4103 45.8452 26.9386 46.69 25.9445 45.9038C25.9445 45.4905 25.6647 46.456 25.6684 46.0427H25.6647Z" fill="#F06187"/>
<path id="Vector_47" d="M20.2601 42.1882C21.5376 41.7164 22.4506 42.6782 21.2173 43.5632C22.1193 44.291 23.3453 43.6912 23.0323 45.4905C22.1009 45.6002 20.7497 45.6295 20.1202 45.6295C20.0686 44.6384 20.2527 43.1939 20.2601 42.1882Z" fill="#F06187"/>
<path id="Vector_48" d="M14.8517 43.9765C15.6065 43.7644 16.398 43.7534 16.8214 44.5141C17.2963 44.2105 17.937 44.174 18.4524 44.3897C18.6475 45.0151 18.5886 45.6624 18.5923 46.317C17.3221 46.317 15.8973 46.4706 14.7118 46.178C14.7118 45.5344 14.8517 44.6165 14.8517 43.9765Z" fill="#F06187"/>
<path id="Vector_49" d="M9.44709 41.9102C11.3836 42.126 11.3836 44.4263 11.3873 46.0391C10.6694 45.7977 9.81526 45.9038 9.03107 45.9001C9.20042 44.8798 9.51704 42.9525 9.44709 41.9066V41.9102Z" fill="#F06187"/>
<path id="Vector_50" d="M14.9916 31.173C15.6322 31.7143 16.3391 32.3506 17.0607 32.6468C16.4385 33.0491 15.6838 33.2064 15.0321 33.4879C15.091 33.5391 15.15 33.5428 15.2125 33.5026C14.918 32.8004 14.7928 32.069 14.8517 31.312C15.2052 31.2206 14.5903 31.2681 14.9916 31.173Z" fill="#AB9DF2"/>
<path id="Vector_51" d="M27.8811 25.8044C27.5792 26.5322 28.0615 27.5854 27.7485 28.2803C27.5239 28.774 27.0674 28.7813 26.7471 29.2238C26.3164 29.2457 25.823 29.2969 25.3849 29.2457C25.3849 27.9621 25.245 26.5395 25.245 25.2522C27.0932 25.2522 27.8774 25.8044 27.8774 25.8044H27.8811Z" fill="#AB9DF2"/>
<path id="Vector_52" d="M15.9636 17.682C16.1182 17.042 16.3759 16.3216 16.9392 16.04C17.2779 16.5081 17.4031 17.1042 17.3479 17.682C17.0092 17.6381 16.2692 17.5467 15.9636 17.682Z" fill="#A9DC76"/>
<path id="Vector_53" d="M20.5362 33.5136C21.3093 33.36 22.1193 33.2649 22.8777 33.1149C22.7783 33.2466 22.7194 33.5026 22.5979 33.6525C23.0728 33.8939 23.3011 34.2706 23.0287 34.7533C22.1083 34.7131 21.2946 34.8703 20.4147 34.7314C20.3411 34.3364 20.3595 33.8793 20.5325 33.5136H20.5362Z" fill="#78DCE8"/>
<path id="Vector_54" d="M24.1405 38.8821C22.9403 38.9077 21.1768 39.0211 20.2601 39.0211C20.2601 39.4783 20.1202 39.939 20.1202 40.3962C21.4861 40.4437 22.6679 40.2974 23.9785 40.3779C24.0853 39.9244 24.0485 39.3247 24.1405 38.8821Z" fill="#80D1DF"/>
<path id="Vector_55" d="M9.44709 21.6719C10.4117 21.6719 11.391 21.6463 12.3445 21.6938C11.8917 22.6154 10.651 22.8349 10.1098 23.5809C9.94043 23.5114 9.76371 23.4931 9.58331 23.4639C9.58331 22.9592 9.44341 22.1802 9.44341 21.6756L9.44709 21.6719Z" fill="#78DCE8"/>
</g>
<g id="Layer_2">
<path id="Vector_56" d="M33.687 5.69408C33.6833 4.4141 33.6355 3.01709 32.7997 2.04431C31.8167 0.899641 30.1158 0.760672 28.6027 0.705815C23.927 0.533932 20.4368 0.362049 15.7648 0.193823C14.2884 0.138967 12.3335 0.46079 10.8572 0.383992C8.76231 0.277936 7.42587 0.318164 6.52019 1.73346C5.61451 3.14875 5.52246 4.91147 5.45988 6.58641C5.18007 13.9042 5.70655 30.6281 5.54455 37.9496" stroke="white" stroke-miterlimit="10"/>
<path id="Vector_57" d="M33.525 15.9851C33.7017 25.5667 33.8895 35.1629 33.9226 44.7445C33.9374 48.5771 34.508 52.3183 33.5029 55.116C32.8292 56.9957 26.5373 56.3374 24.5271 56.3996C18.4082 56.5898 14.1817 56.5605 8.06279 56.3155C7.35592 56.2862 6.28824 56.4106 5.81699 55.8839C5.21688 55.211 5.38256 53.6531 5.44883 53.6531C5.48564 50.3691 5.49301 47.3081 5.52982 44.024" stroke="white" stroke-miterlimit="10"/>
<path id="Vector_58" d="M8.82858 1.27267L8.0223 1.40432L7.41851 2.33688L7.38537 3.40109L6.58646 51.1224L6.74845 53.0534L7.95603 54.5162L8.89484 54.9002L27.5387 54.8015" stroke="black" stroke-miterlimit="10"/>
<path id="Vector_59" d="M29.825 54.7868L30.9 54.4504L31.7578 53.5836L32.0818 52.6511L31.5701 3.73389V2.93664L30.9 2.06991L29.825 1.67129H26.0071L25.002 3.46692L13.184 3.26944L12.779 1.27267H10.7578" stroke="white" stroke-miterlimit="10"/>
<path id="Vector_60" d="M4.34802 17.3968C3.19566 16.1753 2.1059 14.899 1.07872 13.5714C0.684784 13.0631 0.287167 12.4999 0.283485 11.8563C0.276122 10.9201 1.15972 10.1667 2.08749 9.98018C3.01526 9.79367 3.96513 10.0387 4.87449 10.2837" stroke="black" stroke-miterlimit="10"/>
<path id="Vector_61" d="M141.953 84.6616C139.383 82.4673 60.4452 57.4931 56.7893 53.9786C54.8123 52.0806 52.4118 50.5044 51.0975 48.1053C49.0947 44.4482 50.1403 39.9464 49.5512 35.8285C49.253 33.7476 48.5314 31.7545 47.8171 29.776C46.6611 26.587 45.5051 23.398 44.349 20.2091C44.0729 19.4447 43.7894 18.6694 43.3108 18.0148C42.869 17.4077 42.2763 16.9287 41.6909 16.4532C39.9495 15.0453 38.2081 13.6336 36.4666 12.2256C36.1537 11.9733 35.6714 11.7466 35.4211 11.4321C35.2885 11.2675 35.1744 11.0773 34.9977 10.9566C34.6369 10.7116 34.1509 10.8323 33.7349 10.9566" stroke="black" stroke-miterlimit="10"/>
<path id="Vector_62" d="M35.2885 21.6573C37.1993 24.0234 39.1763 27.1941 39.0033 30.2222C38.9959 30.3575 37.8767 31.045 37.7957 31.1547C37.7221 31.2571 37.1441 31.3376 37.0263 31.3888C36.3672 31.6557 35.4947 31.5789 34.7805 31.5899" stroke="black" stroke-miterlimit="10"/>
<path id="Vector_63" d="M4.52842 23.0908C4.02035 23.142 3.50124 23.1128 3.01158 23.2518C1.89605 23.5736 1.22967 24.678 0.673742 25.691C0.423391 26.1482 0.165676 26.6309 0.187766 27.1502C0.209856 27.622 0.460207 28.0535 0.703195 28.4594C1.06031 29.0556 1.41743 29.6517 1.77823 30.2478" stroke="black" stroke-miterlimit="10"/>
<path id="Vector_64" d="M4.58732 30.3684C3.95408 30.0759 3.18094 30.3977 2.69128 30.8914C2.20162 31.3888 1.89973 32.0324 1.49475 32.5993C0.997724 33.2941 0.31662 33.9304 0.209853 34.7752C0.0147258 36.3076 1.78191 37.4998 1.80032 39.0467" stroke="black" stroke-miterlimit="10"/>
<path id="Vector_65" d="M4.74564 39.1674C3.83996 39.204 3.29139 40.1292 2.69128 40.8058C2.05068 41.5299 1.13027 42.1808 1.09713 43.1427C1.06032 44.1813 2.06909 44.909 2.65815 45.7684C3.30612 46.712 3.51597 47.9737 4.41797 48.6795" stroke="black" stroke-miterlimit="10"/>
<path id="Vector_66" d="M40.0931 30.2953L43.4323 31.0157" stroke="black" stroke-miterlimit="10"/>
<path id="Vector_67" d="M39.5408 31.162C40.2551 31.2827 40.9472 31.557 41.551 31.9593" stroke="black" stroke-miterlimit="10"/>
<path id="Vector_68" d="M37.2987 22.8275C38.1344 22.3192 38.9702 21.8109 39.8096 21.3025" stroke="black" stroke-miterlimit="10"/>
<path id="Vector_69" d="M133.887 119.832C130.816 118.438 43.6385 72.6736 40.8993 70.7134C38.9591 69.3237 37.0741 67.7805 34.8394 66.943C32.4942 66.0616 29.8912 66.0068 27.5681 65.0669C23.5441 63.4395 18.4818 59.3728 14.3694 57.9868" stroke="black" stroke-miterlimit="10"/>
<path id="Vector_70" d="M2.00282 42.371C2.61029 42.2979 3.1883 42.0126 3.61906 41.5811C4.04613 41.1459 4.32225 40.5681 4.38484 39.961" stroke="black" stroke-miterlimit="10"/>
<path id="Vector_71" d="M4.1308 30.7268C3.20671 31.3156 2.52929 32.2738 2.2863 33.338C2.01386 33.466 1.75246 33.6123 1.50211 33.7732" stroke="black" stroke-miterlimit="10"/>
<path id="Vector_72" d="M3.74055 23.4931C3.34661 23.7235 2.94531 23.9576 2.65078 24.305C2.09854 24.956 2.0249 25.8702 1.97704 26.7187C1.75246 26.7187 1.53156 26.7187 1.30698 26.7223" stroke="black" stroke-miterlimit="10"/>
<path id="Vector_73" d="M50.3207 52.278C49.5291 53.8798 48.7376 55.4817 47.9423 57.0835C46.9593 59.0693 45.7039 61.2781 43.528 61.7572" stroke="black" stroke-miterlimit="10"/>
<path id="Vector_74" d="M52.861 53.3532C52.1578 54.326 51.4509 55.2988 50.7477 56.2716" stroke="black" stroke-miterlimit="10"/>
<path id="Vector_75" d="M38.8119 54.6405C38.1234 53.9311 37.4349 53.2252 36.7428 52.5158C36.4335 52.2013 36.1279 51.8831 35.8592 51.532C35.6199 51.2175 35.4211 50.8774 35.2591 50.5153" stroke="black" stroke-miterlimit="10"/>
<path id="Vector_76" d="M33.1016 65.2936C33.6612 64.2587 34.0147 63.1177 34.1325 61.9474" stroke="black" stroke-miterlimit="10"/>
<path id="Vector_77" d="M36.2568 66.4602C36.6949 65.7252 37.0079 64.917 37.1846 64.0795" stroke="black" stroke-miterlimit="10"/>
<path id="Vector_78" d="M29.5047 13.7653C29.5047 15.2135 29.5636 16.6836 29.4899 18.1245C28.2676 18.2781 26.9386 17.927 25.6389 17.927C25.6389 16.6727 25.4622 14.9502 25.5322 13.9774C26.1507 13.9774 27.4834 13.8677 28.5069 13.8055" stroke="black" stroke-miterlimit="10"/>
<path id="Vector_79" d="M9.28142 18.1648C9.28142 16.7165 9.22251 15.2464 9.29614 13.8055C10.5184 13.6519 11.8475 14.003 13.1471 14.003C13.1471 15.2574 13.3239 16.9799 13.2539 17.9526C12.6354 17.9526 11.3026 18.0624 10.2791 18.1245" stroke="black" stroke-miterlimit="10"/>
<path id="Vector_80" d="M24.0301 13.9774C22.7194 13.9774 21.4308 13.886 20.1054 13.886C20.1054 15.2756 20.4441 16.6653 20.2417 18.055C21.059 18.055 21.8689 18.0148 22.6789 18.0111C23.0581 18.0111 23.7466 18.1099 24.0742 17.9673V15.1879" stroke="black" stroke-miterlimit="10"/>
<path id="Vector_81" d="M14.7008 14.0432C14.7008 15.3451 14.6087 16.6251 14.6087 17.9417C16.0078 17.9417 17.4068 17.6052 18.8058 17.8064C18.8058 16.9945 18.7653 16.1899 18.7616 15.3854C18.7616 15.0087 18.861 14.3248 18.7175 13.9993H15.9194" stroke="black" stroke-miterlimit="10"/>
<path id="Vector_82" d="M25.4806 23.7674C25.4806 22.3192 25.4217 20.849 25.4954 19.4082C26.7177 19.2546 28.0467 19.6056 29.3464 19.6056C29.3464 20.86 29.5231 22.5825 29.4531 23.5553C28.8346 23.5553 27.5019 23.665 26.4784 23.7272" stroke="black" stroke-miterlimit="10"/>
<path id="Vector_83" d="M13.2502 19.3716C13.2502 20.8198 13.3091 22.2899 13.2355 23.7308C12.0132 23.8844 10.6841 23.5334 9.3845 23.5334C9.3845 22.279 9.20779 20.5565 9.27774 19.5837C9.89625 19.5837 11.229 19.474 12.2525 19.4118" stroke="black" stroke-miterlimit="10"/>
<path id="Vector_84" d="M14.7523 23.559C16.063 23.559 17.3516 23.6504 18.677 23.6504C18.677 22.2607 18.3383 20.871 18.5407 19.4813C17.7234 19.4813 16.9135 19.5215 16.1035 19.5252C15.7243 19.5252 15.0358 19.4264 14.7082 19.5691V22.3485" stroke="black" stroke-miterlimit="10"/>
<path id="Vector_85" d="M24.0816 23.4931C24.0816 22.1912 24.1737 20.9112 24.1737 19.5947C22.7746 19.5947 21.3756 19.9311 19.9766 19.73C19.9766 20.5419 20.0171 21.3464 20.0208 22.151C20.0208 22.5277 19.9214 23.2115 20.0649 23.537H22.863" stroke="black" stroke-miterlimit="10"/>
<path id="Vector_86" d="M29.5047 34.9764C29.5047 33.5282 29.5636 32.058 29.4899 30.6171C28.2676 30.4635 26.9386 30.8146 25.6389 30.8146C25.6389 32.069 25.4622 33.7915 25.5322 34.7643C26.1507 34.7643 27.4834 34.874 28.5069 34.9362" stroke="black" stroke-miterlimit="10"/>
<path id="Vector_87" d="M9.28142 30.5806C9.28142 32.0288 9.22251 33.4989 9.29614 34.9398C10.5184 35.0934 11.8475 34.7423 13.1471 34.7423C13.1471 33.4879 13.3239 31.7655 13.2539 30.7927C12.6354 30.7927 11.3026 30.683 10.2791 30.6208" stroke="black" stroke-miterlimit="10"/>
<path id="Vector_88" d="M24.0301 34.7679C22.7194 34.7679 21.4308 34.8593 20.1054 34.8593C20.1054 33.4697 20.4441 32.08 20.2417 30.6903C21.059 30.6903 21.8689 30.7305 22.6789 30.7342C23.0581 30.7342 23.7466 30.6354 24.0742 30.778V33.5574" stroke="black" stroke-miterlimit="10"/>
<path id="Vector_89" d="M14.7008 34.6984C14.7008 33.3965 14.6087 32.1165 14.6087 30.8C16.0078 30.8 17.4068 31.1364 18.8058 30.9353C18.8058 31.7472 18.7653 32.5517 18.7616 33.3563C18.7616 33.733 18.861 34.4168 18.7175 34.7423H15.9194" stroke="black" stroke-miterlimit="10"/>
<path id="Vector_90" d="M25.2524 29.1433C26.7103 29.1433 28.1903 29.2018 29.6409 29.1287C29.7955 27.9145 29.4421 26.5943 29.4421 25.3034C28.1793 25.3034 26.4452 25.1278 25.4659 25.1973C25.4659 25.8117 25.3555 27.1356 25.2929 28.1523" stroke="black" stroke-miterlimit="10"/>
<path id="Vector_91" d="M13.2502 29.3737C13.2502 27.9255 13.3091 26.4554 13.2355 25.0145C12.0132 24.8609 10.6841 25.212 9.3845 25.212C9.3845 26.4663 9.20779 28.1888 9.27774 29.1616C9.89625 29.1616 11.229 29.2713 12.2525 29.3335" stroke="black" stroke-miterlimit="10"/>
<path id="Vector_92" d="M14.7523 25.1864C16.063 25.1864 17.3516 25.0949 18.677 25.0949C18.677 26.4846 18.3383 27.8743 18.5407 29.264C17.7234 29.264 16.9135 29.2238 16.1035 29.2201C15.7243 29.2201 15.0358 29.3189 14.7082 29.1762V26.3969" stroke="black" stroke-miterlimit="10"/>
<path id="Vector_93" d="M20.0686 29.1068C20.0686 27.8048 19.9766 26.5248 19.9766 25.2083C21.3756 25.2083 22.7746 25.5448 24.1737 25.3436C24.1737 26.1555 24.1332 26.96 24.1295 27.7646C24.1295 28.1413 24.2289 28.8252 24.0853 29.1506H21.2872" stroke="black" stroke-miterlimit="10"/>
<path id="Vector_94" d="M29.5047 51.7697C29.5047 50.3215 29.5636 48.8514 29.4899 47.4105C28.2676 47.2569 26.9386 47.608 25.6389 47.608C25.6389 48.8623 25.4622 50.5848 25.5322 51.5576C26.1507 51.5576 27.4834 51.6673 28.5069 51.7295" stroke="black" stroke-miterlimit="10"/>
<path id="Vector_95" d="M9.28142 47.3739C9.28142 48.8221 9.22251 50.2923 9.29614 51.7332C10.5184 51.8868 11.8475 51.5357 13.1471 51.5357C13.1471 50.2813 13.3239 48.5588 13.2539 47.586C12.6354 47.586 11.3026 47.4763 10.2791 47.4141" stroke="black" stroke-miterlimit="10"/>
<path id="Vector_96" d="M24.0301 51.5613C22.7194 51.5613 21.4308 51.6527 20.1054 51.6527C20.1054 50.263 20.4441 48.8733 20.2417 47.4836C21.059 47.4836 21.8689 47.5238 22.6789 47.5275C23.0581 47.5275 23.7466 47.4288 24.0742 47.5714V50.3508" stroke="black" stroke-miterlimit="10"/>
<path id="Vector_97" d="M14.7008 51.4954C14.7008 50.1935 14.6087 48.9135 14.6087 47.597C16.0078 47.597 17.4068 47.9334 18.8058 47.7323C18.8058 48.5442 18.7653 49.3487 18.7616 50.1533C18.7616 50.53 18.861 51.2138 18.7175 51.5393H15.9194" stroke="black" stroke-miterlimit="10"/>
<path id="Vector_98" d="M25.4806 41.7676C25.4806 43.2158 25.4217 44.6859 25.4954 46.1268C26.7177 46.2804 28.0467 45.9294 29.3464 45.9294C29.3464 44.675 29.5231 42.9525 29.4531 41.9797C28.8346 41.9797 27.5019 41.87 26.4784 41.8078" stroke="black" stroke-miterlimit="10"/>
<path id="Vector_99" d="M13.2502 46.1671C13.2502 44.7189 13.3091 43.2487 13.2355 41.8078C12.0132 41.6542 10.6841 42.0053 9.3845 42.0053C9.3845 43.2597 9.20779 44.9822 9.27774 45.955C9.89625 45.955 11.229 46.0647 12.2525 46.1268" stroke="black" stroke-miterlimit="10"/>
<path id="Vector_100" d="M14.7523 41.9797C16.063 41.9797 17.3516 41.8883 18.677 41.8883C18.677 43.278 18.3383 44.6677 18.5407 46.0574C17.7234 46.0574 16.9135 46.0171 16.1035 46.0135C15.7243 46.0135 15.0358 46.1122 14.7082 45.9696V43.1902" stroke="black" stroke-miterlimit="10"/>
<path id="Vector_101" d="M24.0816 42.0455C24.0816 43.3474 24.1737 44.6274 24.1737 45.944C22.7746 45.944 21.3756 45.6075 19.9766 45.8087C19.9766 44.9968 20.0171 44.1922 20.0208 43.3877C20.0208 43.011 19.9214 42.3271 20.0649 42.0016H22.863" stroke="black" stroke-miterlimit="10"/>
<path id="Vector_102" d="M25.2524 36.3917C26.7103 36.3917 28.1903 36.3332 29.6409 36.4063C29.7955 37.6204 29.4421 38.9407 29.4421 40.2316C28.1793 40.2316 26.4452 40.4071 25.4659 40.3377C25.4659 39.7233 25.3555 38.3994 25.2929 37.3827" stroke="black" stroke-miterlimit="10"/>
<path id="Vector_103" d="M13.2502 36.1649C13.2502 37.6131 13.3091 39.0833 13.2355 40.5242C12.0132 40.6778 10.6841 40.3267 9.3845 40.3267C9.3845 39.0723 9.20779 37.3498 9.27774 36.377C9.89625 36.377 11.229 36.2673 12.2525 36.2052" stroke="black" stroke-miterlimit="10"/>
<path id="Vector_104" d="M14.7523 40.3523C16.063 40.3523 17.3516 40.4437 18.677 40.4437C18.677 39.054 18.3383 37.6643 18.5407 36.2746C17.7234 36.2746 16.9135 36.3149 16.1035 36.3185C15.7243 36.3185 15.0358 36.2198 14.7082 36.3624V39.1418" stroke="black" stroke-miterlimit="10"/>
<path id="Vector_105" d="M20.0686 36.4319C20.0686 37.7338 19.9766 39.0138 19.9766 40.3304C21.3756 40.3304 22.7746 39.9939 24.1737 40.195C24.1737 39.3832 24.1332 38.5786 24.1295 37.7741C24.1295 37.3974 24.2289 36.7135 24.0853 36.388H21.2872" stroke="black" stroke-miterlimit="10"/>
<g id="Group">
<path id="Vector_106" d="M10.0619 10.1813H9.42868V7.24103H10.0619V10.1813ZM10.6584 9.32922H9.67904V8.77335H10.6363C10.7467 8.77335 10.8424 8.75872 10.9271 8.72581C11.0118 8.69289 11.0781 8.64169 11.1259 8.57221C11.1738 8.50272 11.1996 8.4113 11.1996 8.29427C11.1996 8.16993 11.1738 8.07484 11.1259 8.0017C11.0781 7.92856 11.0118 7.87736 10.9271 7.84445C10.8424 7.81153 10.7467 7.79691 10.6363 7.79691H9.67904V7.24103H10.6584C10.8866 7.24103 11.0891 7.2776 11.2695 7.35074C11.4499 7.42388 11.5935 7.53725 11.7003 7.69085C11.807 7.84445 11.8586 8.04559 11.8586 8.29427C11.8586 8.54295 11.807 8.73312 11.7003 8.88672C11.5972 9.04031 11.4536 9.15003 11.2732 9.22317C11.0928 9.29631 10.8866 9.32922 10.6584 9.32922Z" fill="black"/>
<path id="Vector_107" d="M12.8084 10.1813H12.1752V7.24103H12.8084V10.1813ZM14.1964 10.1813H13.5632V8.90135C13.5632 8.76969 13.5411 8.66729 13.4932 8.59049C13.449 8.51369 13.3496 8.47712 13.2024 8.47712C13.103 8.47712 13.022 8.49541 12.9667 8.53564C12.9078 8.57221 12.8673 8.63072 12.8416 8.70752C12.8158 8.78432 12.8047 8.8794 12.8047 8.99643L12.7863 8.77335C12.8011 8.64169 12.8342 8.51735 12.8894 8.39667C12.941 8.27598 13.022 8.1809 13.1251 8.1041C13.2281 8.03096 13.3644 7.99073 13.53 7.99073C13.7362 7.99073 13.8982 8.04924 14.016 8.16993C14.1338 8.29061 14.1927 8.4625 14.1927 8.68192V10.1813H14.1964Z" fill="black"/>
<path id="Vector_108" d="M15.5954 10.2252C15.3782 10.2252 15.1868 10.1777 15.0248 10.0826C14.8628 9.9875 14.7339 9.85585 14.6456 9.68396C14.5572 9.51574 14.513 9.32191 14.513 9.10614C14.513 8.89038 14.5572 8.69289 14.6456 8.52467C14.7339 8.35644 14.8591 8.22479 15.0248 8.1297C15.1868 8.03462 15.3782 7.98708 15.5954 7.98708C15.8127 7.98708 16.0151 8.03462 16.1808 8.1297C16.3465 8.22479 16.4753 8.35644 16.5637 8.52467C16.6521 8.69289 16.6999 8.88672 16.6999 9.10614C16.6999 9.32557 16.6557 9.51574 16.5637 9.68396C16.4753 9.85219 16.3465 9.9875 16.1808 10.0826C16.0151 10.1777 15.82 10.2252 15.5954 10.2252ZM15.6028 9.71688C15.6948 9.71688 15.7722 9.69494 15.8421 9.65471C15.9084 9.61448 15.9636 9.54865 16.0004 9.46088C16.0372 9.37311 16.0593 9.25243 16.0593 9.10614C16.0593 8.95986 16.0409 8.84283 16.0004 8.75141C15.9636 8.66364 15.9084 8.59781 15.8421 8.55758C15.7758 8.51735 15.6948 8.49541 15.6028 8.49541C15.5108 8.49541 15.4371 8.51735 15.3672 8.55758C15.3009 8.59781 15.2457 8.66364 15.2089 8.75141C15.172 8.83918 15.15 8.95986 15.15 9.10614C15.15 9.25243 15.1684 9.36946 15.2089 9.46088C15.2494 9.55231 15.3009 9.61448 15.3672 9.65471C15.4334 9.69494 15.5144 9.71688 15.6028 9.71688Z" fill="black"/>
<path id="Vector_109" d="M18.3898 8.51004H16.8361V8.03096H18.3898V8.51004ZM17.8596 10.2252C17.7013 10.2252 17.5688 10.196 17.4657 10.1374C17.3626 10.0789 17.2853 9.99847 17.2338 9.89607C17.1822 9.79367 17.1601 9.67665 17.1601 9.54499V7.77496L17.7934 7.44582V9.42796C17.7934 9.51573 17.8118 9.57791 17.8523 9.61082C17.8928 9.64373 17.9443 9.66202 18.0032 9.66202C18.0695 9.66202 18.1321 9.64008 18.191 9.59253C18.2499 9.54865 18.2941 9.49379 18.3272 9.43162L18.5076 9.94361C18.4597 10.0021 18.3824 10.0606 18.272 10.1228C18.1615 10.185 18.0253 10.2142 17.8596 10.2142V10.2252Z" fill="black"/>
<path id="Vector_110" d="M19.6305 10.2252C19.4133 10.2252 19.2218 10.1777 19.0599 10.0826C18.8979 9.9875 18.769 9.85585 18.6806 9.68396C18.5923 9.51574 18.5481 9.32191 18.5481 9.10614C18.5481 8.89038 18.5923 8.69289 18.6806 8.52467C18.769 8.35644 18.8942 8.22479 19.0599 8.1297C19.2218 8.03462 19.4133 7.98708 19.6305 7.98708C19.8477 7.98708 20.0502 8.03462 20.2159 8.1297C20.3816 8.22479 20.5104 8.35644 20.5988 8.52467C20.6871 8.69289 20.735 8.88672 20.735 9.10614C20.735 9.32557 20.6908 9.51574 20.5988 9.68396C20.5104 9.85219 20.3816 9.9875 20.2159 10.0826C20.0502 10.1777 19.8551 10.2252 19.6305 10.2252ZM19.6379 9.71688C19.7299 9.71688 19.8072 9.69494 19.8772 9.65471C19.9434 9.61448 19.9987 9.54865 20.0355 9.46088C20.0723 9.37311 20.0944 9.25243 20.0944 9.10614C20.0944 8.95986 20.076 8.84283 20.0355 8.75141C19.9987 8.66364 19.9434 8.59781 19.8772 8.55758C19.8109 8.51735 19.7299 8.49541 19.6379 8.49541C19.5458 8.49541 19.4722 8.51735 19.4022 8.55758C19.336 8.59781 19.2808 8.66364 19.2439 8.75141C19.2071 8.83918 19.185 8.95986 19.185 9.10614C19.185 9.25243 19.2034 9.36946 19.2439 9.46088C19.2844 9.55231 19.336 9.61448 19.4022 9.65471C19.4685 9.69494 19.5495 9.71688 19.6379 9.71688Z" fill="black"/>
<path id="Vector_111" d="M22.0052 10.2252C21.8469 10.2252 21.6959 10.2069 21.5486 10.1704C21.4051 10.1338 21.2762 10.0826 21.1694 10.0168C21.059 9.95093 20.9743 9.87414 20.908 9.79002L21.1989 9.3658C21.2615 9.42797 21.3351 9.48648 21.4235 9.54865C21.5118 9.60717 21.6039 9.65837 21.707 9.69494C21.81 9.73151 21.9131 9.74979 22.0236 9.74979C22.1083 9.74979 22.1745 9.73517 22.2261 9.70957C22.2776 9.68397 22.2997 9.64008 22.2997 9.58522C22.2997 9.53037 22.2702 9.48648 22.2077 9.45723C22.1488 9.42797 22.0604 9.39871 21.9463 9.36946L21.6554 9.29997C21.5266 9.2634 21.4087 9.22317 21.3093 9.17197C21.2063 9.12077 21.1289 9.0586 21.07 8.97815C21.0111 8.89769 20.9854 8.79529 20.9854 8.6673C20.9854 8.45519 21.0663 8.28696 21.2247 8.16993C21.383 8.05291 21.5965 7.99439 21.8616 7.99439C22.0972 7.99439 22.296 8.03462 22.4617 8.11873C22.6237 8.20285 22.7452 8.29062 22.8225 8.3857L22.539 8.80627C22.4322 8.69655 22.3181 8.6161 22.1892 8.55758C22.0641 8.49907 21.9352 8.46981 21.81 8.46981C21.7327 8.46981 21.6738 8.48444 21.6296 8.51004C21.5855 8.53564 21.5634 8.57953 21.5634 8.63073C21.5634 8.68558 21.5891 8.72947 21.6444 8.76238C21.6996 8.79529 21.799 8.82821 21.9426 8.86844L22.1856 8.93426C22.4249 9.00009 22.5979 9.08055 22.7084 9.17929C22.8188 9.27803 22.8704 9.40969 22.8704 9.57425C22.8704 9.71322 22.8335 9.83025 22.7599 9.92899C22.6863 10.0277 22.5869 10.1009 22.458 10.1521C22.3328 10.2033 22.1819 10.2289 22.0125 10.2289L22.0052 10.2252Z" fill="black"/>
</g>
</g>
</g>
<defs>
<clipPath id="clip0_132_1645">
<rect width="144" height="120" fill="white"/>
</clipPath>
</defs>
</svg>
