<svg width="249" height="100" viewBox="0 0 249 100" fill="none" xmlns="http://www.w3.org/2000/svg">
<g id="Frame" clip-path="url(#clip0_3260_77)">
<g id="Layer_4">
<path id="Vector" d="M0.797852 94.0952C0.643375 85.7881 4.56204 78.988 12.4088 76.075C15.7411 74.8361 19.2941 74.0448 22.6169 72.7081C25.3628 71.6015 27.702 69.6753 30.2588 68.389C32.0053 71.0057 33.1812 71.8789 36.3716 72.4023C41.7247 73.2818 47.2228 74.1488 52.6736 73.6034C57.0589 73.1652 63.1812 70.0788 64.9246 65.785C66.5797 66.1948 68.3798 67.3487 70.1579 67.8783C72.0274 68.4332 73.8811 69.133 75.5267 70.2018C76.9832 71.1444 78.9567 72.0839 80.2052 73.2314C78.8527 75.3846 76.5828 75.848 74.7165 77.3834C73.1686 78.657 71.8603 79.9433 70.1894 81.1538C66.9801 83.4805 69.0324 87.1185 68.2001 90.145C67.7398 91.8096 66.0406 94.3033 64.4548 95.0284C62.4246 95.9552 59.209 95.2837 57.1377 95.2743C52.888 95.2585 48.6604 95.3909 44.4265 95.0284C39.7071 94.6248 35.2083 95.64 30.5078 95.6778C27.1282 95.703 23.0425 95.3499 19.6787 95.8985C17.0053 96.3335 14.8899 98.5687 12.2039 98.6066C10.1673 98.6381 7.34262 98.1652 5.32496 97.6009C3.60681 97.1185 2.25119 95.7913 0.804157 94.0984H0.797852V94.0952Z" fill="#FF6188"/>
<path id="Vector_2" d="M69.4139 96.261C71.0406 92.4905 67.3143 86.2043 68.7928 82.0649C70.4637 77.3865 76.6365 77.3897 80.6213 75.6085C86.3401 73.0517 99.0482 58.6507 104.288 63.1778C97.371 70.8733 143.131 75.2428 133.768 63.9439C143.355 59.8172 157.535 67.7995 165.555 72.5158C172.784 76.7686 177.57 86.6078 176.085 95.5801C166.826 95.9489 158.493 98.5845 149.029 98.0296C141.504 97.5883 135.085 95.0473 127.5 95.3752C110.706 96.1066 88.2632 101.813 69.417 96.2579L69.4139 96.261Z" fill="#A9DC76"/>
<path id="Vector_3" d="M172.633 74.4231C178.73 72.0271 184.307 67.024 190.158 63.9155C191.476 74.1583 212.948 68.4962 219.641 65.9521C219.36 64.4073 220.038 62.3581 219.735 60.6683C228.083 64.7289 240.129 61.8127 245.508 71.1696C249.72 78.4962 249.748 91.7938 243.21 96.5889C233.295 103.862 218.455 97.3266 207.765 96.8253C196.539 96.2989 187.317 98.0864 176.614 95.4666C178.626 88.884 174.836 80.1356 172.633 74.4231Z" fill="#AB9DF2"/>
<path id="Vector_4" d="M213.134 3.98171C207.998 2.63556 197.576 1.54161 193.244 4.55863C188.547 7.82471 186.722 12.9823 185.275 18.0391C188.723 22.6923 189.739 27.6292 194.351 31.6141C197.453 34.2938 201.826 37.2352 205.694 37.6765C205.58 32.3802 204.953 26.1349 206.498 21.0939C207.664 17.2793 210.946 12.2699 213.128 8.86507C220.372 15.2554 227.639 19.3789 228.865 29.8361C228.56 17.8342 225.495 7.48108 213.137 3.98486L213.134 3.98171Z" fill="#FF6188"/>
<path id="Vector_5" d="M213.134 9.88335C206.734 19.3064 205.256 26.797 204.937 38.1589C207.198 38.0454 209.288 38.7358 211.504 38.553C211.359 35.4855 212.138 30.7503 215.867 29.5429C220.297 28.1053 222.349 33.9723 224.225 36.1129C226.419 34.1173 228.222 32.005 227.85 29.3821C227.551 27.2888 224.83 23.285 223.654 21.3871C220.773 16.7434 215.81 14.1425 213.137 9.88966L213.134 9.88335Z" fill="#AB9DF2"/>
<path id="Vector_6" d="M203.522 0.655738C198.509 1.07188 193.15 -0.977301 188.821 2.17528C185.495 4.59962 182.267 10.1545 184.694 14.2812" stroke="white" stroke-miterlimit="10"/>
<path id="Vector_7" d="M33.1276 68.3575C33.7361 66.8852 35.3597 65.9205 35.9208 64.3821C36.3023 63.3354 36.4126 62.0839 36.6617 60.9931C39.0135 61.4754 42.6169 62.2226 44.7607 60.9615C46.7562 59.7856 47.1377 59.3884 49.5526 59.3726C52.9952 59.3506 53.6856 57.7711 56.255 56.2106C57.3458 55.5485 58.4807 55.2427 59.6409 54.3537C60.697 55.2175 61.5419 55.2963 61.9233 56.797C62.2039 57.9035 62.4088 59.2938 62.2607 60.372C61.8824 63.0769 61.4694 65.5454 61.8729 68.3354C62.5633 68.4458 63.2789 68.4552 63.7644 67.9161C66.2897 73.4615 57.9196 73.7579 54.3981 74.174C47.847 74.9496 40.0381 76.5889 34.0324 73.2125C33.0646 72.6702 31.1352 69.7478 33.1308 68.3606L33.1276 68.3575Z" fill="#F4E7D3"/>
<path id="Vector_8" d="M62.289 58.6381C62.6863 57.0744 64.5589 57.3613 65.3817 56.1349C66.1415 55 66.6554 53.1463 67.3206 51.8632C68.0047 50.5485 67.7083 51.3493 67.5822 49.9559C67.516 49.215 67.5822 48.3985 67.5822 47.7396C67.5822 46.9514 67.5349 46.5132 67.267 45.8606C67.0368 45.3058 66.4158 45.1387 66.5482 44.401C66.0217 43.6507 65.1957 43.2881 64.3508 43.0265C68.1623 43.0265 68.5974 41.2453 68.7707 37.8657C68.9315 34.7226 69.4643 31.6456 65.987 30.4886C66.1573 29.8014 66.2045 29.1078 65.9492 28.471C64.7607 28.4142 63.487 28.5025 62.4372 29.1456C60.8704 30.1072 61.8225 29.959 62.8754 30.8323C63.5343 31.3777 64.6881 32.5221 64.6913 33.3071C64.6913 33.843 63.8464 34.9117 63.6541 35.4823C63.4019 36.2327 63.3735 36.9546 63.2884 37.7333C63.1371 39.1551 63.6194 40.2301 63.7707 41.7118C63.9158 43.121 63.4807 44.2087 63.0646 45.5265C62.5034 47.3014 62.1283 48.7736 61.2298 50.3625C60.6465 51.3934 60.6339 52.6608 60.0822 53.5214C59.8174 53.9376 58.9946 54.2308 58.8905 54.6627C58.8464 54.8518 59.4422 56.0687 59.499 56.3966C59.7197 57.6986 60.6465 59.1047 62.2953 58.6412L62.289 58.6381Z" fill="#F4E7D3"/>
<path id="Vector_9" d="M69.2121 22.4054C67.8344 21.9924 66.8603 21.6425 65.4353 22.2856C66.2708 24.2686 68.0173 25.6084 67.5665 28.1242C65.2935 29.1425 61.2109 27.7743 60.5236 31.3903C61.5671 32.7617 63.528 32.3077 63.9 34.0385C64.2121 35.4981 63.0646 36.5763 62.8754 38.0548C62.6642 39.7194 62.9984 41.5857 63.0173 43.1652C63.0299 44.1078 63.2096 45.0347 62.9574 45.8985C62.5129 47.418 61.0627 48.7327 60.5204 50.2427C63.7077 52.8878 56.2172 56.1286 54.9246 56.7497C53.9662 57.21 53.1276 58.0076 52.3143 58.534C50.9019 59.4483 50.0034 59.2497 48.446 59.4893C46.0501 59.855 43.8086 61.5574 41.0816 61.4344C38.4681 61.3178 34.9057 61.0561 34.8931 57.9004C34.8836 56.1192 34.3508 55.8733 32.5444 55.0977C30.8231 54.36 31.0911 53.2692 29.9845 52.0712C28.8779 50.8733 27.2418 50.6368 26.2109 49.2182C24.7008 47.1374 25.9429 46.8285 25.9208 44.7888C25.9051 43.3953 24.6377 42.7995 24.1333 41.6204C23.3483 39.7951 24.2972 37.0965 24.1428 35.0536C23.6951 29.2245 24.0072 24.1929 25.5866 18.5624C25.9555 17.2509 25.8893 15.8354 26.4126 14.6658C26.7436 13.9281 27.4183 13.6034 27.2197 12.6986C27.0463 12.6639 26.8162 12.563 26.6964 12.541C27.8124 11.5385 28.3767 10.5517 29.7638 9.74463C31.2424 8.88083 33.011 8.08322 34.6472 7.63555C36.7342 7.06178 38.3294 7.62294 40.2777 6.41866C42.0778 5.30895 44.3193 4.03215 46.545 4.5807C48.5532 5.0725 49.3761 6.86317 51.4662 5.91109C54.3067 4.61538 57.0368 3.98801 60.0885 5.17023C61.5104 5.71878 63.2537 7.74274 64.3666 8.81777C64.8615 9.29697 65.3155 9.33165 65.2462 10.1765C64.7354 10.6431 63.8811 11.0088 63.3325 11.3556L69.1049 16.5984L69.2216 22.4023L69.2121 22.4054Z" fill="#444035"/>
<path id="Vector_10" d="M104.417 10.2207C100.514 11.8695 96.8981 14.5429 94.9309 18.2944C93.2632 21.4723 92.8975 25.1482 92.557 28.7232C92.1945 32.5441 91.8319 36.3903 92.1535 40.2175C92.5791 45.29 94.2815 50.3594 97.6137 54.2055C101.299 58.4584 106.605 60.8827 111.74 63.181C115.432 64.8329 119.385 66.5258 123.383 65.9111C126.652 65.4098 129.474 63.4269 132.166 61.5006C135.858 58.8588 139.653 56.0971 141.949 52.1816C144.587 47.6765 144.903 42.2289 145.152 37.0145C145.35 32.8373 145.542 28.5719 144.408 24.546C142.844 18.9975 138.824 14.3443 133.973 11.2295C129.868 8.59394 123.802 5.68726 118.783 6.06242C114.316 6.39344 108.478 8.51198 104.414 10.2301L104.417 10.2207Z" fill="#725F31"/>
<path id="Vector_11" d="M105.968 68.2282C106.249 65.4287 106.529 62.6324 106.81 59.8329C110.861 62.9193 115.565 65.4319 120.643 65.7944C125.725 66.157 131.198 63.9975 133.73 59.5775C134.269 60.9142 134.556 62.5725 134.707 64.0069C134.858 65.4414 134.565 66.983 133.6 68.0548C132.51 69.2686 130.795 69.6721 129.187 69.9401C121.504 71.2263 113.541 70.063 105.971 68.2251L105.968 68.2282Z" fill="#F4E7D3"/>
<path id="Vector_12" d="M211.479 53.6948C207.081 52.6482 202.781 51.198 198.648 49.3695C196.775 45.0599 193.386 43.3512 193.03 36.4439C192.957 35.0031 191.756 33.6759 190.416 33.1494C188.692 32.4716 186.706 33.7484 185.905 35.4161C185.42 36.425 185.249 37.5284 185.183 38.6538C183.991 39.5965 183.402 41.2547 183.758 42.7364C183.947 43.5214 184.398 44.2276 185 44.7636C184.66 49.9559 183.701 55.104 182.15 60.0693C181.321 62.7301 180.583 66.8537 179.754 69.5145C183.692 68.4994 187.604 66.1633 190.29 63.1084C190.454 63.5088 191.22 66.8726 191.416 67.0429C196.056 71.1192 202.44 68.7484 208.008 68.657C211.154 68.6066 214.786 68.0769 216.432 65.3941C217.349 63.8997 217.421 62.0555 217.469 60.3026C217.557 56.9672 217.645 53.6286 217.734 50.2932C215.65 51.425 213.563 52.5567 211.479 53.6885V53.6948Z" fill="#F4E7D3"/>
<path id="Vector_13" d="M188.109 24.1929C187.043 25.2963 186.99 27.0113 187.135 28.5403C187.28 30.0694 187.541 31.6835 186.908 33.0801C186.495 33.988 185.716 35 186.233 35.8543C187.51 34.7257 188.525 33.6885 189.682 32.4401C191.378 32.9855 191.835 35.1513 191.851 36.9325C191.863 38.5467 191.75 40.1576 191.513 41.7528C191.321 43.0485 192.333 44.3474 193.415 45.0788C194.496 45.8102 195.795 46.3808 196.425 47.5284C196.69 48.0107 196.835 48.5939 197.267 48.9344C197.538 49.1488 197.885 49.2339 198.216 49.3222C200.401 49.9117 202.472 50.9142 204.291 52.2572C205.145 52.8909 206.019 53.6255 207.078 53.72C207.592 53.7642 208.109 53.6507 208.623 53.6255C209.559 53.5782 210.511 53.8272 211.302 54.3316C212.642 52.21 215.375 51.5794 217.617 50.4477C222.308 48.0706 225.265 42.6482 224.717 37.418C220.703 38.988 215.952 39.2938 211.7 38.6034C207.447 37.9161 203.355 36.4786 199.291 35.0504C196.87 34.1992 194.401 33.3228 192.371 31.7528C190.341 30.1828 187.989 26.7591 188.109 24.1929Z" fill="#5B5953"/>
<path id="Vector_14" d="M212.336 34.4073C215.637 34.669 218.982 34.401 222.198 33.616C221.523 32.7175 220.996 31.8506 220.322 30.9521C219.984 30.5013 219.638 30.041 219.174 29.7194C218.749 29.4199 218.241 29.2528 217.727 29.174C215.234 28.7862 212.686 31.9105 212.336 34.4105V34.4073Z" fill="#1E1C17"/>
<path id="Vector_15" d="M82.9889 54.3001C83.0141 37.6167 83.0425 20.9363 83.0677 4.25284C83.0677 3.27554 83.1118 2.19105 83.7897 1.48802C84.2909 0.971 85.0318 0.77554 85.7411 0.649437C87.7808 0.283737 89.8647 0.293195 91.9359 0.305805C113.768 0.412993 135.602 0.523333 157.434 0.630521C159.36 0.639979 161.413 0.684115 163.024 1.74338C163.061 20.1513 163.096 38.5624 163.134 56.9704C167.179 60.8449 171.104 65.1923 174.966 69.2497C175.196 70.5769 174.966 71.9388 174.606 73.2377C172.935 73.9092 171.312 74.5114 169.638 75.1797C167.053 73.6759 164.234 71.4943 161.649 69.9905C160.542 69.3474 159.43 68.7011 158.238 68.2346C156.728 67.6419 155.107 67.3455 153.626 66.6803C152.15 66.0151 150.858 65.0063 149.452 64.2024C148.046 63.3985 146.428 62.7932 144.83 63.0549C150.965 62.7112 157.068 62.4527 163.21 62.604C162.317 60.3279 160.574 58.3701 158.433 57.1879L137.57 57.2383C139.455 55.1955 141.46 52.7459 143.128 50.5202L159.209 50.5612C159.862 35.6085 159.843 20.372 159.042 5.4256L85.5047 5.43191C84.9025 20.4697 84.83 35.7945 85.4164 50.8323C88.4019 51.3556 92.3521 51.1917 95.3849 51.2169C95.9366 53.3449 96.7184 55.2238 97.9385 57.0492C93.7581 57.0397 89.6944 56.9609 85.5141 56.9515C84.6755 56.9515 83.8086 56.9515 83.0299 57.2667C82.0021 57.6829 81.2644 58.5813 80.4889 59.3726C79.1743 60.7125 77.6263 61.8254 75.9397 62.645C76.9517 62.5189 77.8786 62.6545 78.8937 62.7648C86.0532 63.5467 93.2915 63.6129 100.464 62.9634C95.801 64.8518 91.0028 67.5568 86.9612 70.5549C85.8168 71.4061 84.6377 72.3235 83.2316 72.5631C81.4315 72.8657 79.6629 71.9956 78.0456 71.1507C74.1743 69.1267 70.3029 67.1059 66.4315 65.082C70.6497 63.1211 73.3798 59.1173 77.5854 57.1248C79.2216 56.3493 81.6806 55.5486 82.9952 54.3064L82.9889 54.3001Z" fill="#78DCE8"/>
<path id="Vector_16" d="M221.138 33.43C221.422 33.348 221.718 33.2629 222.012 33.3102C222.352 33.367 222.636 33.5971 222.904 33.8178C223.6 34.3978 224.367 35.145 224.244 36.0403C224.092 37.1658 222.721 37.6009 221.599 37.7932C219.846 38.0927 211.16 40.0504 211.397 37.2604C211.668 34.0637 219.244 33.9754 221.138 33.43Z" fill="#FF6188"/>
<path id="Vector_17" d="M184.464 15.5927C184.562 13.0517 182.119 10.9016 182.317 8.36381C182.39 7.45271 182.806 6.59836 183.333 5.85119C185.341 3.00441 188.837 1.59836 192.251 0.898484C195.164 0.299493 198.165 0.104032 201.123 0.412986C202.97 0.605293 204.691 1.16015 206.469 1.70239C203.288 2.03972 200.17 2.9256 197.131 3.91866C194.379 4.8203 191.668 6.01198 189.464 7.89407C187.261 9.77616 184.676 12.7049 184.461 15.5958L184.464 15.5927Z" fill="#AB9DF2"/>
</g>
<g id="Layer_2">
<path id="Vector_18" d="M28.1118 47.5158C28.6825 49.1267 33.2726 55.2522 34.6156 56.1759C35.3124 56.652 38.8968 58.8808 39.4643 58.9597" stroke="black" stroke-miterlimit="10"/>
<path id="Vector_19" d="M39.9908 53.9565C38.3956 51.1003 34.975 48.7863 34.8773 45.1671" stroke="black" stroke-miterlimit="10"/>
<path id="Vector_20" d="M44.0545 51.7245C43.6131 50.6053 44.149 49.1047 44.1869 47.9193" stroke="black" stroke-miterlimit="10"/>
<path id="Vector_21" d="M47.8533 52.251C48.0015 51.6394 48.5122 51.3493 48.7833 50.8102C49.1144 50.1513 49.1175 49.3916 49.4265 48.7106" stroke="black" stroke-miterlimit="10"/>
<path id="Vector_22" d="M52.9668 56.8411C54.7165 54.4199 60.8609 48.1274 58.4744 44.6438" stroke="black" stroke-miterlimit="10"/>
<path id="Vector_23" d="M202.91 0.832289C197.292 0.302655 191.504 -1.06872 186.971 2.77113C182.828 6.27996 182.258 10.9615 184.426 15.6242C188.777 8.37012 194.975 1.98929 202.907 0.832289H202.91Z" stroke="black" stroke-miterlimit="10"/>
<path id="Vector_24" d="M115.978 5.8512C112.897 6.41552 112.658 6.5227 110.47 8.31022C109.073 9.45146 107.434 10 105.788 10.7535C102.699 12.1627 98.9504 15.0347 99.3855 18.9218" stroke="black" stroke-miterlimit="10"/>
<path id="Vector_25" d="M116.249 8.84616C117.494 6.80013 119.717 7.28563 121.693 7.48424C123.512 7.67025 126.264 7.25726 128.09 7.75537C131.249 8.62548 133.894 13.3165 134.486 16.4691" stroke="black" stroke-miterlimit="10"/>
<path id="Vector_26" d="M98.8338 13.203C95.987 15.1829 93.5532 17.4937 93.3829 21.0404C93.2537 23.7011 94.9183 25.3247 96.1099 27.3644" stroke="black" stroke-miterlimit="10"/>
<path id="Vector_27" d="M64.5179 10.9521C63.9315 5.84175 57.0526 2.72069 52.8754 5.44137C50.1011 7.2478 49.6692 10.3184 46.2423 11.4534" stroke="black" stroke-miterlimit="10"/>
<path id="Vector_28" d="M29.2089 10.7346C30.4668 9.42624 35.3155 7.14377 37.6768 7.67025C38.7644 7.913 39.644 9.46092 40.719 9.57756C42.1219 9.72573 44.4138 7.6734 45.801 7.11855" stroke="black" stroke-miterlimit="10"/>
<path id="Vector_29" d="M69.6787 18.6349C67.9164 12.5284 61.7941 14.5902 57.9195 16.0057" stroke="black" stroke-miterlimit="10"/>
<path id="Vector_30" d="M66.2455 23.4836C66.5545 24.1457 68.2506 26.0719 67.9857 26.8758C67.6074 28.0233 64.7701 28.1904 63.8338 29.0038C63.9252 29.1173 64.2562 29.1141 64.2815 29.1488C63.1907 29.5366 62.0557 30.0757 61.0343 30.5832C61.9044 30.7251 64.6566 32.4779 65.347 33.1085C63.5311 34.2623 63.446 38.9344 64.7638 40.4824" stroke="black" stroke-miterlimit="10"/>
<path id="Vector_31" d="M92.3016 30.3594C92.3741 33.2566 91.9738 36.6709 91.6963 39.6185C91.6081 40.5706 91.0343 41.5889 91.4504 42.4023C91.9927 43.4552 94.0261 44.0889 94.748 45.3373" stroke="black" stroke-miterlimit="10"/>
<path id="Vector_32" d="M95.5709 48.8777C94.4864 52.6293 95.2209 53.5404 97.7619 55.971C100.498 58.594 100.918 59.7226 104.278 58.408" stroke="black" stroke-miterlimit="10"/>
<path id="Vector_33" d="M135.297 12.3865C142.995 13.7547 139.773 22.3739 138.834 27.0933" stroke="black" stroke-miterlimit="10"/>
<path id="Vector_34" d="M28.4586 14.0952C25.3533 17.5252 24.7575 22.5284 24.8584 27.0555" stroke="black" stroke-miterlimit="10"/>
<path id="Vector_35" d="M108.087 15.6526C105 18.657 104.821 20.4414 104.821 24.6406" stroke="black" stroke-miterlimit="10"/>
<path id="Vector_36" d="M99.9214 22.1879C99.9214 26.8947 99.1238 28.6286 96.3842 32.2636" stroke="black" stroke-miterlimit="10"/>
<path id="Vector_37" d="M96.6553 36.0782C94.9529 39.1646 96.1351 42.0996 98.2884 44.5208" stroke="black" stroke-miterlimit="10"/>
<path id="Vector_38" d="M142.642 20.0095C144.199 24.814 146.504 33.7547 142.642 38.2535" stroke="black" stroke-miterlimit="10"/>
<path id="Vector_39" d="M100.467 49.4199C100.892 53.9786 104.568 55.5927 108.358 56.5006" stroke="black" stroke-miterlimit="10"/>
<path id="Vector_40" d="M69.5242 22.4842C67.7461 20.3216 65.7663 19.7068 62.7524 20.4477C60.3754 21.0309 59.2341 23.8367 56.8319 24.0542" stroke="black" stroke-miterlimit="10"/>
<path id="Vector_41" d="M60.4826 11.6394C56.1509 8.35121 52.0084 15.9111 49.6944 18.4899" stroke="black" stroke-miterlimit="10"/>
<path id="Vector_42" d="M37.0021 62.4937C37.1597 65.9773 36.8476 66.7371 35.3596 69.9338" stroke="black" stroke-miterlimit="10"/>
<path id="Vector_43" d="M62.5412 59.3127C61.7688 62.0208 61.7247 66.5763 63.0835 69.1141" stroke="black" stroke-miterlimit="10"/>
<path id="Vector_44" d="M106.454 62.7648C107.112 64.2245 106.614 66.5353 106.454 68.2125" stroke="black" stroke-miterlimit="10"/>
<path id="Vector_45" d="M133.664 61.674C133.664 64.3916 133.597 66.7497 134.48 69.3001" stroke="black" stroke-miterlimit="10"/>
<path id="Vector_46" d="M99.9214 66.8506C96.359 71.0151 99.7701 72.9477 103.052 75.1639C104.802 76.3462 106.233 78.2156 108.011 78.616C110.167 79.1015 112.396 78.4269 114.616 79.1078C116.305 79.628 117.51 81.0057 118.963 81.5574C120.716 82.2226 123.708 81.9073 125.498 81.5448C130.479 80.5422 135.533 77.2289 139.118 73.7295C141.923 70.9899 145.41 65.9174 139.102 65.2144" stroke="black" stroke-miterlimit="10"/>
<path id="Vector_47" d="M104.821 67.6671C101.4 68.575 103.033 71.0498 105.092 72.3707C107.491 73.9092 110.558 74.587 113.333 74.7446C119.373 75.0946 125.741 76.0719 131.277 73.4521C133.147 72.5662 137.576 70.826 136.387 68.2093" stroke="black" stroke-miterlimit="10"/>
<path id="Vector_48" d="M144.275 40.7093C145.842 44.505 144.149 50.8985 140.193 52.9634" stroke="black" stroke-miterlimit="10"/>
<path id="Vector_49" d="M102.1 40.9805C101.977 45.2144 105.7 47.3802 105.366 51.0561" stroke="black" stroke-miterlimit="10"/>
<path id="Vector_50" d="M137.472 56.5006C135.18 56.8695 133.676 60.0347 131.696 61.2043C130.095 62.1501 127.44 65.3594 125.769 65.2144" stroke="black" stroke-miterlimit="10"/>
<path id="Vector_51" d="M111.895 61.674C114.335 62.6356 116.917 66.2516 119.515 66.0309" stroke="black" stroke-miterlimit="10"/>
<path id="Vector_52" d="M106.454 58.408C107.478 59.7825 108.462 61.3619 109.72 62.4937" stroke="black" stroke-miterlimit="10"/>
<path id="Vector_53" d="M139.376 33.6255C139.688 36.942 139.72 41.4817 138.014 44.2465" stroke="black" stroke-miterlimit="10"/>
<path id="Vector_54" d="M135.022 21.1003C137.141 21.8254 136.154 25.2018 135.022 26.5479" stroke="black" stroke-miterlimit="10"/>
<path id="Vector_55" d="M121.419 11.5668C122.488 13.7831 125.628 13.657 126.734 16.0908C127.488 17.7459 127.456 20.6305 125.498 21.3714" stroke="black" stroke-miterlimit="10"/>
<path id="Vector_56" d="M113.254 20.0095C112.358 22.1312 111.8 25.2837 109.445 26.2736" stroke="black" stroke-miterlimit="10"/>
<path id="Vector_57" d="M102.642 28.7264C103.78 31.6488 103.137 34.1646 105.076 36.8979C107.081 39.7226 107.913 41.0845 108.083 44.524" stroke="black" stroke-miterlimit="10"/>
<path id="Vector_58" d="M139.647 48.058C136.031 49.8928 133.607 55.1356 129.852 57.3172" stroke="black" stroke-miterlimit="10"/>
<path id="Vector_59" d="M120.873 60.8575C120.142 57.9382 117.806 57.604 115.716 56.116C113.752 54.7163 113.197 53.1431 112.163 51.0561" stroke="black" stroke-miterlimit="10"/>
<path id="Vector_60" d="M131.488 49.4199C133.541 46.5731 135.013 42.9887 133.938 39.6185" stroke="black" stroke-miterlimit="10"/>
<path id="Vector_61" d="M130.397 21.9168C130.397 25.0536 129.682 25.5391 128.758 28.0328C128.005 30.0662 128.175 33.0738 127.948 35.2585" stroke="black" stroke-miterlimit="10"/>
<path id="Vector_62" d="M133.118 34.7163C134.628 33.6192 134.937 31.6929 136.384 30.6305" stroke="black" stroke-miterlimit="10"/>
<path id="Vector_63" d="M118.698 19.1929C118.698 21.0467 119.121 23.4395 118.493 25.1829C118.008 26.5322 116.624 27.2257 116.52 28.7232" stroke="black" stroke-miterlimit="10"/>
<path id="Vector_64" d="M112.711 33.6255C113.052 35.5013 114.376 37.21 114.622 39.0637C114.821 40.5675 114.14 41.901 114.345 43.4269" stroke="black" stroke-miterlimit="10"/>
<path id="Vector_65" d="M124.14 60.3121C124.915 58.0233 123.824 55.1955 124.745 52.9603C125.558 50.9836 126.942 49.7951 127.403 47.5126" stroke="black" stroke-miterlimit="10"/>
<path id="Vector_66" d="M118.424 51.6015C117.828 48.3071 119.029 45.9615 120.057 43.1589" stroke="black" stroke-miterlimit="10"/>
<path id="Vector_67" d="M125.501 34.1709C126.432 36.4691 125.647 38.3165 126.041 40.4319C126.302 41.8411 127.626 42.7049 127.68 44.2465" stroke="black" stroke-miterlimit="10"/>
<path id="Vector_68" d="M118.969 35.5328C119.152 32.4086 120.987 31.5101 122.248 29.1551C123.011 27.7333 122.686 25.9962 123.049 24.3632" stroke="black" stroke-miterlimit="10"/>
<path id="Vector_69" d="M115.435 12.1122C112.831 13.5214 108.32 17.9161 108.635 21.1003" stroke="black" stroke-miterlimit="10"/>
<path id="Vector_70" d="M120.602 9.3884C125.025 7.45271 125.599 10.8985 128.493 12.6545" stroke="black" stroke-miterlimit="10"/>
<path id="Vector_71" d="M65.533 67.3172C67.0305 73.9597 56.2707 73.3228 51.8918 74.1173C46.277 75.1324 40.5078 76.2169 35.3849 73.3827C33.3388 72.251 29.1554 70.4004 32.1724 68.1337" stroke="black" stroke-miterlimit="10"/>
<path id="Vector_72" d="M24.9214 30.331C24.9309 33.7957 25.1169 35.4823 25.7695 38.6034C26.5923 42.5315 25.1642 42.6702 29.376 44.3979" stroke="black" stroke-miterlimit="10"/>
<path id="Vector_73" d="M32.929 15.0063C31.6711 16.8064 29.4485 19.2465 28.9473 21.57C28.3893 24.1551 29.9466 26.7213 29.1995 29.3474" stroke="black" stroke-miterlimit="10"/>
<path id="Vector_74" d="M58.2726 27.4685C57.0148 29.3096 54.2342 30.826 54.4958 33.3323" stroke="black" stroke-miterlimit="10"/>
<path id="Vector_75" d="M95.0255 66.3052C93.4807 69.8109 89.4549 71.5101 87.6169 74.7383C85.47 78.5088 86.2392 80.4477 88.7045 83.9344C91.4315 87.7869 94.8868 89.2623 99.458 90.2585C100.256 90.4319 101 90.6274 101.715 90.8386" stroke="black" stroke-miterlimit="10"/>
<path id="Vector_76" d="M109.445 31.4502C108.6 33.3733 109.694 37.1438 110.533 39.0763" stroke="black" stroke-miterlimit="10"/>
<path id="Vector_77" d="M116.249 16.7434C115.602 19.3443 115.079 21.2043 115.432 23.8241" stroke="black" stroke-miterlimit="10"/>
<path id="Vector_78" d="M122.235 22.1879C122.245 20.8575 122.658 19.0826 122.078 18.1022C121.119 16.4849 119.414 16.8695 119.515 14.5618" stroke="black" stroke-miterlimit="10"/>
<path id="Vector_79" d="M112.711 9.9338C110.908 10.7251 109.508 11.7371 107.677 12.4054C105.672 13.14 104.294 13.9155 103.188 15.6494" stroke="black" stroke-miterlimit="10"/>
<path id="Vector_80" d="M106.454 27.9067C106.331 29.07 106.324 29.8077 106.454 30.9016" stroke="black" stroke-miterlimit="10"/>
<path id="Vector_81" d="M100.467 33.8997C99.7701 36.2137 99.7196 38.925 99.1049 41.2547" stroke="black" stroke-miterlimit="10"/>
<path id="Vector_82" d="M150.536 64.669C152.094 65.1797 153.374 65.9426 154.944 66.3556C156.826 66.8537 159.256 66.8506 160.987 67.6829C162.314 68.3228 165.782 70.3657 166.589 71.7465" stroke="black" stroke-miterlimit="10"/>
<path id="Vector_83" d="M48.7045 6.12232C47.1661 2.91615 43.9441 5.29635 41.9044 5.8512" stroke="black" stroke-miterlimit="10"/>
<path id="Vector_84" d="M68.0803 67.809C71.3023 69.0889 75.0286 70.8386 78.7392 72.5757" stroke="black" stroke-miterlimit="10"/>
<path id="Vector_85" d="M28.1118 68.3481C24.54 70.9836 11.3495 76.0908 7.13769 77.4937C3.20957 78.8052 1.03113 85.7882 0.157867 94.0826" stroke="black" stroke-miterlimit="10"/>
<path id="Vector_86" d="M67.9164 46.9357C67.6263 46.7907 67.3331 46.6457 67.0463 46.5006" stroke="black" stroke-miterlimit="10"/>
<path id="Vector_87" d="M65.1547 46.2074C65.1074 46.5479 65.0601 46.8852 65.0097 47.2257" stroke="black" stroke-miterlimit="10"/>
<path id="Vector_88" d="M66.7278 48.3985C66.7783 48.5435 66.8287 48.6885 66.8823 48.8304" stroke="black" stroke-miterlimit="10"/>
<path id="Vector_89" d="M66.8981 52.3203C66.6081 52.5631 66.3149 52.8058 66.028 53.0486" stroke="black" stroke-miterlimit="10"/>
<path id="Vector_90" d="M63.8464 50.2806C63.6036 50.3752 63.364 50.476 63.1181 50.5706" stroke="black" stroke-miterlimit="10"/>
<path id="Vector_91" d="M63.6887 53.4773C63.5942 53.6728 63.4933 53.8651 63.3987 54.0605" stroke="black" stroke-miterlimit="10"/>
<path id="Vector_92" d="M65.2997 55.082C65.2525 55.4224 65.2052 55.7598 65.1547 56.1003" stroke="black" stroke-miterlimit="10"/>
<path id="Vector_93" d="M65.1421 51.5858C65.2335 51.3399 65.3312 51.1003 65.4227 50.8544" stroke="black" stroke-miterlimit="10"/>
<path id="Vector_94" d="M65.1579 49.2623C64.8678 49.215 64.5746 49.1677 64.2878 49.1173" stroke="black" stroke-miterlimit="10"/>
<path id="Vector_95" d="M67.1913 50.1356C67.6263 50.1829 68.0614 50.2301 68.5028 50.2806" stroke="black" stroke-miterlimit="10"/>
<path id="Vector_96" d="M63.7014 55.8102C63.3609 56.053 63.0236 56.2957 62.6831 56.5385" stroke="black" stroke-miterlimit="10"/>
<path id="Vector_97" d="M62.393 52.9004C62.1503 53.1904 61.9107 53.4836 61.6648 53.7737" stroke="black" stroke-miterlimit="10"/>
<path id="Vector_98" d="M65.8577 45.8859C66.1509 45.6463 66.4441 45.4067 66.7373 45.1671" stroke="black" stroke-miterlimit="10"/>
<path id="Vector_99" d="M64.4296 52.6103C63.9945 52.3203 63.5595 52.0271 63.1181 51.7371" stroke="black" stroke-miterlimit="10"/>
<path id="Vector_100" d="M90.6528 68.326C87.3457 71.1822 82.1566 73.5435 79.3445 75.0378C76.5324 76.5322 73.5595 77.8815 71.3243 80.1482C69.086 82.4149 67.7304 85.908 68.9662 88.8462" stroke="black" stroke-miterlimit="10"/>
<path id="Vector_101" d="M177.598 93.6129C178.386 86.2894 175.303 78.6602 169.653 73.947" stroke="black" stroke-miterlimit="10"/>
<path id="Vector_102" d="M67.0526 31.4628C68.0204 31.0498 69.1018 31.715 69.1837 32.7648C69.4202 35.7976 68.6667 38.9061 67.9164 41.8916C67.7997 42.3613 67.661 42.8626 67.2827 43.1621C66.9076 43.4615 66.214 43.3922 66.0784 42.9288" stroke="black" stroke-miterlimit="10"/>
<path id="Vector_103" d="M142.043 91.1475C146.022 90.0946 149.764 88.9723 151.406 87.8184C152.992 86.7055 156.45 84.9559 157.298 83.1904C157.973 81.7812 157.298 78.4584 157.339 76.9325C157.434 73.4584 157.667 71.5858 154.628 69.3001C152.015 67.3329 149.54 67.0492 146.785 65.7661C143.487 64.2308 139.471 60.3405 136.113 63.8525" stroke="black" stroke-miterlimit="10"/>
<path id="Vector_104" d="M184.568 66.8317C182.541 68.326 177.412 70.6179 172.595 72.5725" stroke="black" stroke-miterlimit="10"/>
<path id="Vector_105" d="M217.03 52.9603C215.725 57.0366 215.492 60.0158 216.488 64.3537" stroke="black" stroke-miterlimit="10"/>
<path id="Vector_106" d="M224.225 38.0517C224.032 40.2364 223.868 42.9634 222.932 45.0032C221.879 47.2919 219.764 48.7453 218.37 50.6557" stroke="black" stroke-miterlimit="10"/>
<path id="Vector_107" d="M186.305 41.384C186.706 43.8808 184.802 53.6286 186.504 56.3115" stroke="black" stroke-miterlimit="10"/>
<path id="Vector_108" d="M189.218 33.0738C190.142 30.2364 191.394 33.8556 191.595 35.4256C191.898 37.7837 191.321 41.6362 190.782 43.947C190.669 44.4294 189.338 45.3878 189.058 45.6021C188.66 44.9243 188.736 44.1456 189.067 43.1148" stroke="black" stroke-miterlimit="10"/>
<path id="Vector_109" d="M210.571 52.8909C208.783 52.686 206.822 52.1375 205.205 51.3997C205.58 51.0561 205.971 50.4603 206.372 50.1702" stroke="black" stroke-miterlimit="10"/>
<path id="Vector_110" d="M195.038 43.6097C196.028 42.3739 197.182 41.2264 198.169 39.9433C197.235 39.7005 196.419 39.0921 195.965 38.2755C196.176 37.8121 196.545 37.4968 196.949 37.2919" stroke="black" stroke-miterlimit="10"/>
<path id="Vector_111" d="M195.183 34.0542C194.868 33.5656 194.442 33.1242 193.979 32.8027" stroke="black" stroke-miterlimit="10"/>
<path id="Vector_112" d="M188.159 33.4143C187.91 33.8115 187.551 34.215 187.242 34.5776C187.494 33.1873 187.321 31.8096 187.469 30.4067C187.355 30.4477 187.226 30.7314 187.122 30.744C187.128 29.1394 189.269 26.1349 186.977 25.8323" stroke="black" stroke-miterlimit="10"/>
<path id="Vector_113" d="M193.988 57.3014C194.288 60.3373 194.852 63.244 193.988 66.2516" stroke="black" stroke-miterlimit="10"/>
<path id="Vector_114" d="M217.573 62.1847C220.634 62.872 218.011 66.0183 216.277 67.1343C213.664 68.8115 209.256 69.0668 206.261 69.2371C202.793 69.4357 199.099 69.4262 195.621 69.2371C193.206 69.1047 188.881 68.1337 191.819 65.1702" stroke="black" stroke-miterlimit="10"/>
<path id="Vector_115" d="M188.84 66.2516C188.314 75.5076 208.591 72.4496 214.319 70.8638" stroke="black" stroke-miterlimit="10"/>
<path id="Vector_116" d="M219.824 41.9136C219.335 44.3663 217.67 45.1892 216.028 46.797" stroke="black" stroke-miterlimit="10"/>
<path id="Vector_117" d="M190.148 63.1211C191.766 61.0813 192.607 53.0675 188.541 53.657C188.15 54.5744 188.232 55.3657 188.143 56.28C188.058 57.1501 187.563 57.9477 187.535 58.8934" stroke="black" stroke-miterlimit="10"/>
<path id="Vector_118" d="M184.805 50.3247C183.597 52.9161 182.929 55.8197 182.645 58.7358C182.481 60.4067 182.166 64.6028 180.47 64.7037" stroke="black" stroke-miterlimit="10"/>
<path id="Vector_119" d="M186.16 37.5757C185.36 39.1646 183.112 42.3077 184.805 43.8146" stroke="black" stroke-miterlimit="10"/>
<path id="Vector_120" d="M221.299 62.7428C226.58 64.1267 231.86 65.5107 237.141 66.8947C239.808 67.5946 242.68 68.4237 244.344 70.6242C245.457 72.0933 245.861 73.9691 246.186 75.785C247.163 81.2232 247.721 86.7371 247.85 92.2636" stroke="black" stroke-miterlimit="10"/>
<path id="Vector_121" d="M185.565 17.1816C185.265 22.1343 191.621 30.268 195.549 32.9855C201.1 36.8222 207.585 38.0139 214.537 38.3481C218.187 38.5246 221.633 38.7106 224.679 36.3178C225.968 35.3027 227.844 33.3197 228.156 31.6803" stroke="black" stroke-miterlimit="10"/>
<path id="Vector_122" d="M229.017 28.78C229.017 26.0025 229.067 23.5309 228.437 20.9679C227.787 18.3228 227.065 17.8941 225.388 16.0341C222.582 12.9256 221.296 9.35688 217.147 5.98992C214.316 4.1362 210.517 2.57567 206.709 2.39597C203.232 2.23204 201.577 2.77113 198.301 3.85247C196.015 4.60909 193.856 5.2396 191.646 6.66457C188.764 8.5246 189.455 10.3689 187.879 13.1211" stroke="black" stroke-miterlimit="10"/>
<path id="Vector_123" d="M212.216 34.5807C214.426 34.4767 216.198 34.8771 218.301 34.4294C219.871 34.0952 221.233 33.2062 222.885 33.4742C222.964 33.7989 223.09 34.0038 223.225 34.2938" stroke="black" stroke-miterlimit="10"/>
<path id="Vector_124" d="M220.328 31.1003C220.158 27.2194 216.703 29.4262 215.114 30.8102" stroke="black" stroke-miterlimit="10"/>
<path id="Vector_125" d="M185.851 31.3903C185.552 33.0769 184.739 34.4073 184.981 36.3178" stroke="white" stroke-miterlimit="10"/>
<path id="Vector_126" d="M185.88 29.9527C184.13 30.495 182.535 36.2358 184.077 37.4716" stroke="white" stroke-miterlimit="10"/>
<path id="Vector_127" d="M189.486 50.4035C189.471 50.0631 189.518 49.7888 189.635 49.5019" stroke="black" stroke-miterlimit="10"/>
<path id="Vector_128" d="M188.928 48.1463C188.969 48.0423 189.058 47.954 189.165 47.9098" stroke="black" stroke-miterlimit="10"/>
<path id="Vector_129" d="M187.803 52.0933C187.762 51.9452 187.787 51.8001 187.894 51.7182" stroke="black" stroke-miterlimit="10"/>
<path id="Vector_130" d="M189.023 52.046C189.234 51.8253 189.549 51.6835 189.773 51.529" stroke="black" stroke-miterlimit="10"/>
<path id="Vector_131" d="M188.225 50.5423C188.225 50.2144 188.2 49.9874 188.462 49.7446" stroke="black" stroke-miterlimit="10"/>
<path id="Vector_132" d="M187.333 48.2409C187.251 47.913 187.57 47.809 187.803 47.6765" stroke="black" stroke-miterlimit="10"/>
<path id="Vector_133" d="M189.962 46.9704C189.934 46.7213 189.962 46.4754 190.104 46.2642" stroke="black" stroke-miterlimit="10"/>
<path id="Vector_134" d="M190.382 48.9943C190.457 48.8525 190.514 48.6885 190.524 48.5246" stroke="black" stroke-miterlimit="10"/>
<path id="Vector_135" d="M187.144 46.5006C187.226 46.2831 187.374 46.1097 187.425 45.889" stroke="black" stroke-miterlimit="10"/>
<path id="Vector_136" d="M212.179 6.60782C210.937 6.27365 210.542 7.86255 211.34 8.56558C212.021 9.16457 213.307 8.82094 213.046 7.72699" stroke="black" stroke-miterlimit="10"/>
<path id="Vector_137" d="M208.582 6.97983C205.722 6.97983 201.804 6.32724 199.095 7.28563C197.497 7.84994 196.759 8.65385 195.672 9.85183C194.597 11.0341 193.181 11.7591 191.945 12.7238C190.36 13.9597 188.846 15.7755 188.096 17.6671" stroke="black" stroke-miterlimit="10"/>
<path id="Vector_138" d="M210.564 10.2081C210.766 11.9956 209.099 14.3096 208.73 16.0372C208.358 17.7743 208.55 19.5649 208.295 21.3619C207.658 25.826 207.957 30.3027 207.957 34.8108" stroke="black" stroke-miterlimit="10"/>
<path id="Vector_139" d="M214.291 9.46407C217.97 9.36634 219.72 11.8758 221.867 14.3695C222.929 15.6053 223.686 17.0996 224.445 18.5404C225.372 20.2932 224.657 22.065 225.211 23.8714C225.42 24.5555 226.104 25.041 226.324 25.8039C226.545 26.5668 226.482 27.5757 226.46 28.3512" stroke="black" stroke-miterlimit="10"/>
<path id="Vector_140" d="M210.94 34.6911C210.618 35.3594 210.583 36.8033 211.687 36.8033" stroke="black" stroke-miterlimit="10"/>
<path id="Vector_141" d="M201.627 48.4836C199.647 48.1904 198.73 46.9231 198.645 45.0032" stroke="black" stroke-miterlimit="10"/>
<path id="Vector_142" d="M205.725 47.8626C205.725 45.9899 205.703 44.9969 204.609 43.5151" stroke="black" stroke-miterlimit="10"/>
<path id="Vector_143" d="M208.582 46.1192C208.582 44.9748 208.266 43.2976 208.831 42.2667" stroke="black" stroke-miterlimit="10"/>
<path id="Vector_144" d="M213.049 50.4697C213.049 49.4168 212.724 47.7585 213.2 46.7686C213.601 45.9426 214.136 45.7535 214.291 44.7541" stroke="black" stroke-miterlimit="10"/>
<path id="Vector_145" d="M93.5942 48.8493C91.5009 48.8556 89.354 48.8619 87.434 48.8682C87.3678 48.0675 87.3048 47.2636 87.2386 46.4628C88.8023 46.4628 90.3754 46.4439 91.9517 46.4281" stroke="white" stroke-miterlimit="10"/>
<path id="Vector_146" d="M87.3678 31.3935C87.4403 31.5984 87.5097 31.8064 87.5822 32.0114C87.9511 32.0114 88.2947 31.7276 88.364 31.3682C88.4334 31.0088 88.2159 30.6148 87.8754 30.4824" stroke="white" stroke-miterlimit="10"/>
<path id="Vector_147" d="M87.3489 27.2604C87.2733 27.3897 87.3836 27.5631 87.5318 27.5946C87.6768 27.6261 87.825 27.5599 87.9416 27.4653C88.1402 27.3077 88.2821 27.0618 88.2821 26.8064C88.2821 26.5511 88.1213 26.2926 87.8754 26.2106C87.6295 26.1286 87.33 26.2642 87.2543 26.5101" stroke="white" stroke-miterlimit="10"/>
<path id="Vector_148" d="M89.9466 26.901C89.871 26.4187 90.1358 26.6551 90.2398 26.6677C90.265 26.6677 90.3123 26.8789 90.4195 26.8979C90.5614 26.9231 90.9492 26.529 91.0343 26.447C91.1289 26.9136 91.4756 26.4124 91.7184 26.3493C91.8413 26.5889 91.8697 27.0114 92.0872 27.1438" stroke="white" stroke-miterlimit="10"/>
<path id="Vector_149" d="M89.6661 31.4187C89.9214 31.1822 89.953 30.8291 90.12 30.5391C90.2115 30.785 90.2556 31.0372 90.3723 31.2736C90.574 31.22 90.7726 31.1318 90.9775 31.0908C91.0564 31.2295 91.1037 31.3903 91.1131 31.5511" stroke="white" stroke-miterlimit="10"/>
<path id="Vector_150" d="M136.822 11.343C135.022 11.3272 135.87 11.2989 134.07 11.2831" stroke="white" stroke-miterlimit="10"/>
<path id="Vector_151" d="M145.76 26.4439C148.455 26.3808 151.157 26.302 153.827 26.28V13.1305" stroke="white" stroke-miterlimit="10"/>
<path id="Vector_152" d="M153.827 11.1097C152.989 11.116 140.331 11.1255 139.493 11.1318C139.556 11.6898 139.527 12.2793 139.584 12.8373" stroke="white" stroke-miterlimit="10"/>
<path id="Vector_153" d="M146.028 43.0832C148.749 43.1021 151.472 43.1179 154.203 43.1368C154.518 38.3638 154.518 33.5467 154.398 28.7642C151.605 28.8903 148.812 29.0006 146.019 29.0858" stroke="white" stroke-miterlimit="10"/>
<path id="Vector_154" d="M144.852 23.0107C147.44 22.9508 150.025 22.8531 152.617 22.8625V24.8739C150.029 24.959 147.44 25.0725 144.852 25.1671" stroke="white" stroke-miterlimit="10"/>
<path id="Vector_155" d="M146.012 45.7346C148.635 45.6841 151.258 45.6337 153.85 45.6116C153.85 46.4502 154.013 48.4174 154.013 49.2591" stroke="white" stroke-miterlimit="10"/>
<path id="Vector_156" d="M136.586 58.6129C143.496 58.6539 150.41 58.698 157.321 58.739H157.573" stroke="white" stroke-miterlimit="10"/>
<path id="Vector_157" d="M82.9574 58.2913L97.0652 58.3733" stroke="white" stroke-miterlimit="10"/>
<path id="Vector_158" d="M138.667 57.314C144.887 57.3518 151.107 57.3897 157.324 57.4275H157.576" stroke="white" stroke-miterlimit="10"/>
<path id="Vector_159" d="M84.0166 56.9798C88.1371 57.005 92.2606 57.0303 96.3842 57.0555" stroke="white" stroke-miterlimit="10"/>
<path id="Vector_160" d="M136.113 60.2018L161.305 60.3373" stroke="white" stroke-miterlimit="10"/>
<path id="Vector_161" d="M80.2178 59.9023C86.813 59.937 93.4082 59.9748 100.003 60.0063" stroke="white" stroke-miterlimit="10"/>
<path id="Vector_162" d="M144.761 62.686L162.951 62.6923" stroke="white" stroke-miterlimit="10"/>
<path id="Vector_163" d="M75.284 62.6639C83.3041 62.6639 95.5992 62.6702 103.616 62.6734" stroke="white" stroke-miterlimit="10"/>
<path id="Vector_164" d="M163.831 62.6955C161.693 60.8638 159.559 59.0353 157.421 57.2068" stroke="white" stroke-miterlimit="10"/>
<path id="Vector_165" d="M79.2814 62.4779C81.999 60.9395 84.5147 59.1267 86.7468 57.087" stroke="white" stroke-miterlimit="10"/>
<path id="Vector_166" d="M75.4479 62.4779C78.1654 60.9395 80.6812 59.1267 82.9132 57.087" stroke="white" stroke-miterlimit="10"/>
<path id="Vector_167" d="M86.2739 62.7554C87.9731 61.1412 89.3476 59.2781 90.3312 57.2699" stroke="white" stroke-miterlimit="10"/>
<path id="Vector_168" d="M95.8105 62.9508C97.5791 61.5795 97.9132 61.1854 98.9 59.3127" stroke="white" stroke-miterlimit="10"/>
<path id="Vector_169" d="M89.7985 62.9634C91.2203 61.2737 92.412 59.4357 93.3325 57.5" stroke="white" stroke-miterlimit="10"/>
<path id="Vector_170" d="M154.389 57.5757C155.646 59.152 156.898 60.7283 158.156 62.3045" stroke="white" stroke-miterlimit="10"/>
<path id="Vector_171" d="M148.443 57.7428C149.452 59.2434 150.461 60.7409 151.469 62.2446" stroke="white" stroke-miterlimit="10"/>
<path id="Vector_172" d="M142.945 57.9634C143.314 59.4546 143.686 60.9458 144.054 62.437" stroke="white" stroke-miterlimit="10"/>
<path id="Vector_173" d="M137.557 57.7049C137.734 59.3853 138.106 61.0404 138.664 62.6009" stroke="white" stroke-miterlimit="10"/>
<path id="Vector_174" d="M83.2947 55.227C82.6799 38.8525 82.3899 19.1236 82.4246 2.73646C82.4246 2.19736 82.4372 1.62359 82.7209 1.16016C83.2506 0.299508 84.4391 0.211235 85.4511 0.214388C110.539 0.327881 135.624 0.441374 160.71 0.55802C162.204 3.25348 162.28 9.82031 162.314 12.9004C162.475 26.8285 162.639 40.7535 162.8 54.6848" stroke="black" stroke-miterlimit="10"/>
<path id="Vector_175" d="M144.054 50.9489L159.792 50.9742L159.367 4.73519L88.2411 5.00001" stroke="black" stroke-miterlimit="10"/>
<path id="Vector_176" d="M85.3975 5.01262L85.5456 50.8386L93.591 50.8544" stroke="black" stroke-miterlimit="10"/>
<path id="Vector_177" d="M66.0816 65.867C70.5173 62.7112 75.5299 58.9754 79.5904 56.6267" stroke="black" stroke-miterlimit="10"/>
<path id="Vector_178" d="M174.568 70.1923C174.568 69.71 174.524 69.2245 174.42 68.7516C172.346 68.7264 169.259 68.7926 165.946 68.8808" stroke="black" stroke-miterlimit="10"/>
<path id="Vector_179" d="M161.331 55.5738C164.032 58.3544 169.944 63.2251 172.948 65.6747" stroke="black" stroke-miterlimit="10"/>
<path id="Vector_180" d="M140.306 55.2932C147.333 55.3878 154.363 55.4887 161.394 55.5832" stroke="black" stroke-miterlimit="10"/>
<path id="Vector_181" d="M85.4227 54.5366C88.5311 54.5776 91.6427 54.6217 94.7512 54.6658" stroke="black" stroke-miterlimit="10"/>
<path id="Vector_182" d="M124.045 2.10594C123.799 2.28563 123.49 2.3676 123.184 2.33923C123.027 2.90354 123.626 3.5246 124.196 3.38589C124.764 3.24402 125.01 2.41489 124.609 1.99244C124.351 1.88841 124.089 1.78122 123.834 1.67719" stroke="white" stroke-miterlimit="10"/>
<path id="Vector_183" d="M131.488 7.90353C139.146 7.93506 147.298 7.98235 158.153 7.98235" stroke="white" stroke-miterlimit="10"/>
<path id="Vector_184" d="M99.1522 7.97604C102.346 7.94452 105.3 7.9193 108.083 7.90038" stroke="white" stroke-miterlimit="10"/>
<path id="Vector_185" d="M87.661 21.3934C87.0683 21.7528 86.958 22.9981 87.9038 22.954C88.5374 22.9256 88.796 21.9452 88.26 21.6299" stroke="white" stroke-miterlimit="10"/>
<path id="Vector_186" d="M89.8174 22.232C89.9845 22.024 90.2682 21.8348 90.4195 21.5448C90.4195 21.7781 90.5456 22.005 90.5488 22.2226C90.9429 21.8253 91.2234 21.3083 91.4819 20.8134C91.4819 21.2768 91.4094 21.7465 91.3621 22.2068C91.2644 22.1312 91.4441 22.0082 91.4567 22.0019C91.7058 22.5568 92.0116 22.3203 92.2039 21.797" stroke="white" stroke-miterlimit="10"/>
<path id="Vector_187" d="M87.5412 17.2005C86.9044 17.7365 87.5507 18.7074 88.3199 18.2661C89.0954 17.8216 88.528 16.9452 88.0204 16.838" stroke="white" stroke-miterlimit="10"/>
<path id="Vector_188" d="M90.2966 17.9193C90.3187 18.0864 90.2461 18.1841 90.3817 18.2755C90.5047 17.9477 90.7632 17.6734 90.8987 17.355C90.9271 17.686 91.1257 18.0612 91.1604 18.3922C91.7468 18.0801 92.8565 17.8878 93.2884 17.3518" stroke="white" stroke-miterlimit="10"/>
<path id="Vector_189" d="M88.3357 7.96974C88.0047 8.17466 87.68 8.32283 87.3962 8.55927C87.371 7.95713 87.3395 7.34553 87.4971 6.77176C87.9448 7.11224 88.3578 7.35183 88.8275 7.66709C89.2594 7.96028 89.6472 8.34805 90.0917 8.61602C90.0665 7.9792 90.1421 7.30454 90.161 6.65826C89.8773 7.03657 89.4202 6.97667 89.0797 7.2478" stroke="white" stroke-miterlimit="10"/>
<path id="Vector_190" d="M87.7808 12.7711C86.9517 12.8941 87.412 13.575 88.0835 13.4899C88.818 13.4016 89.0135 12.5347 88.2632 12.2919" stroke="white" stroke-miterlimit="10"/>
<path id="Vector_191" d="M89.8174 13.1305C89.8741 13.3354 90.0255 13.5845 90.1421 13.7264C90.2587 13.367 90.511 13.058 90.6308 12.7081C90.6528 12.7522 90.6623 12.7963 90.6717 12.8468C90.8357 12.6608 91.028 12.5158 91.2329 12.4212C91.255 12.5284 91.2297 12.6576 91.2739 12.7585C91.7814 12.4716 92.516 12.3613 92.4719 13.0801C92.7808 12.9697 93.1528 12.7869 93.5028 12.5694C93.5847 12.9004 93.8905 13.0359 94.0103 13.2598C94.1207 13.14 94.2594 13.0454 94.3666 12.9004C94.9687 13.099 96.3054 13.2125 96.8792 13.0044" stroke="white" stroke-miterlimit="10"/>
<path id="Vector_192" d="M89.4044 67.7301C86.2171 67.7301 83.0488 67.8752 79.8647 67.7301C76.9265 67.5946 73.673 67.7585 70.7915 67.2037" stroke="black" stroke-miterlimit="10"/>
<path id="Vector_193" d="M79.9655 72.1911C80.8073 72.1595 81.8382 72.541 82.5853 72.1911" stroke="black" stroke-miterlimit="10"/>
</g>
</g>
<defs>
<clipPath id="clip0_3260_77">
<rect width="248.433" height="100" fill="white" transform="translate(0.000244141)"/>
</clipPath>
</defs>
</svg>
