<svg width="172" height="108" viewBox="0 0 172 108" fill="none" xmlns="http://www.w3.org/2000/svg">
<g id="Frame" clip-path="url(#clip0_132_1524)">
<g id="Layer_4">
<path id="Vector" d="M165.369 99.9291C161.145 92.2036 152.146 86.3315 146.513 79.9737C108.334 80.1042 69.934 78.9419 31.659 78.9419C26.8475 83.0547 22.3515 87.3368 16.9332 90.6498C11.6714 93.8661 7.28854 98.2182 1.48732 100.272C-1.40005 108.138 9.32824 105.591 14.1325 105.777C39.5288 106.763 65.2044 106.529 90.6393 106.466C103.542 106.432 116.532 106.454 129.406 107.174C141.326 107.841 153.55 106.657 165.371 107.5C166.096 105.226 166.537 102.063 165.371 99.9315L165.369 99.9291ZM127.438 93.0494C120.081 93.0494 112.681 93.2475 105.37 92.7062C87.8338 91.4037 70.2013 92.0393 52.5858 92.0175C45.9441 92.0103 39.2711 92.0248 32.6608 92.0272C29.6723 92.0272 25.8529 92.6845 23.086 91.6744C26.402 88.6199 30.4886 86.6746 32.6848 82.3854C48.4775 82.3854 64.246 84.1107 80.0747 83.4003C95.4531 82.7092 110.925 83.1562 126.282 83.7603C131.065 83.9488 135.893 83.7603 140.683 83.7603C144.767 83.7603 146.732 89.3376 149.598 92.0175C143.491 94.3035 133.993 93.0494 127.438 93.0494Z" fill="#78DCE8"/>
<path id="Vector_2" d="M147.426 45.9446C147.433 33.6205 147.633 21.0499 146.552 8.80066C146.328 6.27059 145.425 3.30313 144.912 0.731982C119.97 0.731982 95.0293 0.502415 70.0954 0.502415C62.2545 0.502415 54.4858 0.42992 46.6906 1.0123C42.3608 1.33611 36.9617 0.0215326 32.798 1.18387C28.4802 2.38728 32.379 6.40833 31.0834 8.99156C29.0534 13.044 31.7625 17.8625 31.553 22.4611C31.2135 29.887 31.069 37.4265 31.0834 44.8669C31.1003 53.0974 31.0834 61.328 31.0834 69.5562C31.0834 72.8088 31.3218 76.233 30.8547 79.4034C39.6877 79.4034 48.9447 79.761 57.7753 79.8577C73.9364 80.0317 90.1504 81.8489 106.314 82.3733C116.303 82.6971 126.448 82.8179 136.404 81.8755C140.526 81.4864 144.637 80.6479 148.794 80.7808C148.794 69.2396 147.416 57.5317 147.423 45.947L147.426 45.9446ZM91.6555 3.2548L91.9975 2.91166C92.6525 2.90924 93.346 3.19439 94.0011 3.30555C93.8806 5.84287 90.6802 4.85452 89.6327 3.32488C90.2781 3.24755 90.9909 3.19439 91.6555 3.25722V3.2548ZM143.313 8.53001V75.0441C111.036 75.0441 79.032 74.3505 46.8086 74.3554C43.023 74.3554 39.0929 74.2659 35.4301 73.8962C35.158 70.576 35.6589 67.1276 35.6589 63.7397C35.6589 59.2958 35.4277 54.7552 35.8684 50.3596C36.822 40.8579 35.4301 31.2741 35.4301 21.6516C35.4301 16.937 35.4614 12.1668 36.1165 7.60933C69.2959 7.60933 102.454 7.15019 135.657 7.15019C138.183 7.15019 140.878 7.28793 143.315 7.15019C143.59 7.44259 143.433 7.99838 143.315 8.52518L143.313 8.53001Z" fill="#78DCE8"/>
</g>
<g id="Layer_2">
<path id="Vector_3" d="M2.07977 100.816L2.45785 104.383C2.56863 105.422 3.44519 106.207 4.48792 106.2C55.2203 105.816 112.895 106.144 163.618 107.188" stroke="black" stroke-miterlimit="10"/>
<path id="Vector_4" d="M32.4417 85.2997C68.2869 85.5147 104.132 85.7298 139.977 85.9473C140.1 85.9473 140.223 85.9473 140.346 85.9473" stroke="white" stroke-miterlimit="10"/>
<path id="Vector_5" d="M33.9732 83.3979C69.3103 83.6129 104.647 83.828 139.982 84.0455C140.103 84.0455 140.225 84.0455 140.346 84.0455" stroke="white" stroke-miterlimit="10"/>
<path id="Vector_6" d="M28.4778 87.6388C67.5669 87.8467 106.653 88.0569 145.742 88.2647" stroke="white" stroke-miterlimit="10"/>
<path id="Vector_7" d="M21.3449 91.6381C63.603 91.6526 105.861 91.6695 148.122 91.684" stroke="white" stroke-miterlimit="10"/>
<path id="Vector_8" d="M149.393 91.6865C146.306 89.0331 143.216 86.3798 140.129 83.7289" stroke="white" stroke-miterlimit="10"/>
<path id="Vector_9" d="M86.413 92.0755C86.0999 88.8688 85.7845 85.6646 85.4714 82.4579" stroke="white" stroke-miterlimit="10"/>
<path id="Vector_10" d="M27.1245 91.3723C31.057 89.1419 34.6884 86.5127 37.9226 83.5549" stroke="black" stroke-miterlimit="10"/>
<path id="Vector_11" d="M21.5809 91.3723C25.5134 89.1419 29.1449 86.5127 32.379 83.5549" stroke="white" stroke-miterlimit="10"/>
<path id="Vector_12" d="M37.2363 91.7735C39.6902 89.4343 41.6817 86.7302 43.1001 83.8159" stroke="white" stroke-miterlimit="10"/>
<path id="Vector_13" d="M78.7262 91.73C79.1862 89.1201 79.3355 86.4668 79.1741 83.8304" stroke="white" stroke-miterlimit="10"/>
<path id="Vector_14" d="M70.4012 92.0707C71.0129 89.4488 71.6222 86.8269 72.2338 84.205" stroke="white" stroke-miterlimit="10"/>
<path id="Vector_15" d="M60.1738 92.0828C61.3972 89.5744 62.6205 87.0637 63.8438 84.5554" stroke="white" stroke-miterlimit="10"/>
<path id="Vector_16" d="M51.0277 92.0538C53.5876 90.065 55.6682 87.6122 57.0914 84.8985" stroke="white" stroke-miterlimit="10"/>
<path id="Vector_17" d="M42.3319 92.0755C44.3909 89.6252 46.1127 86.9598 47.442 84.1567" stroke="white" stroke-miterlimit="10"/>
<path id="Vector_18" d="M89.9457 83.1296C90.5719 85.7709 91.198 88.4145 91.8241 91.0557" stroke="white" stroke-miterlimit="10"/>
<path id="Vector_19" d="M95.7133 83.8522C96.5224 86.7133 97.3291 89.5769 98.1383 92.438" stroke="white" stroke-miterlimit="10"/>
<path id="Vector_20" d="M101.755 83.8328C102.702 86.2324 103.646 88.6344 104.592 91.034" stroke="white" stroke-miterlimit="10"/>
<path id="Vector_21" d="M135.737 84.263C137.552 86.549 139.368 88.835 141.181 91.1186" stroke="white" stroke-miterlimit="10"/>
<path id="Vector_22" d="M127.144 84.507C128.604 86.6819 130.061 88.8567 131.52 91.0316" stroke="white" stroke-miterlimit="10"/>
<path id="Vector_23" d="M119.188 84.8212C119.722 86.984 120.259 89.1467 120.794 91.3095" stroke="white" stroke-miterlimit="10"/>
<path id="Vector_24" d="M111.4 84.4491C111.653 86.8897 112.195 89.2869 113.001 91.5487" stroke="white" stroke-miterlimit="10"/>
<path id="Vector_25" d="M32.9281 80.8557C32.0395 57.1112 31.6205 28.5048 31.6662 4.74337C31.6662 3.95801 31.6831 3.12673 32.0925 2.45736C32.8583 1.21045 34.5801 1.07754 36.0394 1.08479C72.3181 1.25153 108.597 1.41585 144.876 1.58259C147.038 5.49006 147.144 15.0111 147.195 19.4792C147.428 39.6738 147.664 59.8709 147.898 80.0655" stroke="black" stroke-miterlimit="10"/>
<path id="Vector_26" d="M35.9696 8.04188L36.1863 74.4955L143.551 74.6937L142.935 7.64558L40.0755 8.02738" stroke="black" stroke-miterlimit="10"/>
<path id="Vector_27" d="M2.23627 100.309C9.69429 95.3595 19.8278 87.3778 27.57 82.8856" stroke="black" stroke-miterlimit="10"/>
<path id="Vector_28" d="M163.936 106.739C164.887 104.815 165.164 102.566 164.709 100.468C155.394 100.362 131.961 101.514 128.394 100.835" stroke="black" stroke-miterlimit="10"/>
<path id="Vector_29" d="M145.779 81.3559C149.685 85.3891 158.234 92.4501 162.58 95.9999" stroke="black" stroke-miterlimit="10"/>
<path id="Vector_30" d="M36.0033 79.8553C72.624 80.3603 109.247 80.8678 145.868 81.3729" stroke="black" stroke-miterlimit="10"/>
<path id="Vector_31" d="M3.02612 101.14C41.4481 101.352 82.8826 101.568 121.305 101.78" stroke="black" stroke-miterlimit="10"/>
<path id="Vector_32" d="M91.8578 3.8251C91.5038 4.08366 91.0535 4.20691 90.6176 4.16582C90.3888 4.9826 91.2582 5.88637 92.0794 5.68338C92.9005 5.4804 93.2569 4.27698 92.6766 3.65836C92.3033 3.50612 91.9276 3.35147 91.5544 3.19923" stroke="black" stroke-miterlimit="10"/>
<path id="Vector_33" d="M69.3416 93.233L109.762 93.3901L114.658 99.7286L64.6048 99.5691L69.3416 93.233Z" stroke="black" stroke-miterlimit="10"/>
<path id="Vector_34" d="M22.7561 85.2368C16.926 84.8188 11.0814 84.623 5.23682 84.652" stroke="white" stroke-miterlimit="10"/>
<path id="Vector_35" d="M150.186 85.5075C155.252 85.6331 160.324 85.4688 165.371 85.0145" stroke="white" stroke-miterlimit="10"/>
<path id="Vector_36" d="M18.0192 88.9051C16.2757 89.1636 14.4841 89.0742 12.7743 88.6489" stroke="white" stroke-miterlimit="10"/>
<path id="Vector_37" d="M153.499 88.0037C154.701 88.0085 160.254 88.1414 158.236 88.0037" stroke="white" stroke-miterlimit="10"/>
<path id="Vector_38" d="M6.65763 96.5581H0.5" stroke="white" stroke-miterlimit="10"/>
<path id="Vector_39" d="M160.131 94.1827C163.922 94.1827 167.71 94.1827 171.5 94.1827" stroke="white" stroke-miterlimit="10"/>
<path id="Vector_40" d="M118.415 21.2166C106.969 21.2166 95.4508 22.391 84.0289 21.7845C75.061 21.3084 65.8932 21.4099 56.9277 21.4099C57.1324 28.7368 57.1348 35.5005 57.3082 42.8515C57.5008 51.0772 57.8885 54.528 57.8885 62.761C78.011 63.8218 98.8101 62.3744 118.99 62.3744C118.99 55.758 119.055 53.8659 118.754 47.2616C118.55 42.7693 119.229 37.975 118.798 33.5552C117.779 33.9878 115.607 33.0115 114.268 32.9777C111.164 32.9004 108.045 32.7989 104.949 32.7844C98.9859 32.7578 93.033 32.5911 87.0849 32.5911C81.9868 32.5911 76.8888 32.3929 71.81 32.3977C69.4332 32.3977 65.9269 32.7071 63.6536 31.9724C59.8921 30.7594 59.7043 25.4986 63.461 24.2517C65.6837 23.5147 68.5277 24.0077 70.8708 24.1043C77.6353 24.3822 84.5563 25.3005 91.3328 24.9743C100.643 24.5248 109.194 24.8776 118.502 24.8776C118.603 23.6428 118.646 22.3355 118.412 21.2142L118.415 21.2166Z" fill="#F9FF73"/>
<path id="Vector_41" d="M60.9637 17.1666C59.384 16.8742 58.7458 18.9644 60.2894 19.4647C61.9101 19.989 62.2424 17.2391 60.7711 16.9733" fill="#FF6188"/>
<path id="Vector_42" d="M65.3827 16.9732C64.5952 16.9732 63.721 16.8089 63.5886 17.7441C63.4875 18.4594 63.9498 19.1505 64.6482 19.2858C65.2695 19.4067 66.2279 19.1239 66.4736 18.5488C66.8107 17.7586 66.3796 16.9201 65.5127 16.9708C65.4694 16.9708 65.4268 16.9708 65.3851 16.9708L65.3827 16.9732Z" fill="#F7AF39"/>
<path id="Vector_43" d="M69.6114 17.0385C68.9901 17.3333 68.4531 17.3744 68.3904 18.196C68.3423 18.834 68.6505 19.0708 69.2092 19.2713C70.4133 19.7015 71.4078 18.3458 70.5722 17.3599C70.211 16.9346 70.1123 17.0941 69.6114 17.0385Z" fill="#A9DC76"/>
<path id="Vector_44" d="M118.369 20.83C118.362 19.0829 118.357 17.4251 118.357 15.881" stroke="white" stroke-miterlimit="10"/>
<path id="Vector_45" d="M57.2817 22.0866C57.6598 28.918 57.4743 36.1771 57.7753 42.7258C57.9945 47.5008 58.4665 55.7701 58.4665 60.5741C58.4665 63.7083 57.8717 59.3344 58.8133 62.2149C70.4133 62.1859 82.3697 60.6925 93.9577 61.3425C102.237 61.8089 110.398 62.2149 118.704 62.2149C118.704 50.1396 118.449 36.1336 118.376 22.275" stroke="black" stroke-miterlimit="10"/>
<path id="Vector_46" d="M116.878 16.299C97.7891 16.299 75.8268 15.881 56.7374 15.881C56.9349 17.4276 57.0818 19.02 57.1926 20.6391" stroke="white" stroke-miterlimit="10"/>
<path id="Vector_47" d="M58.7554 21.0233C73.5583 20.8686 89.4087 21.6008 104.39 21.6008C108.041 21.6008 114.092 21.8908 116.496 21.7942" stroke="white" stroke-miterlimit="10"/>
<path id="Vector_48" d="M60.5158 17.3599C60.1185 17.3357 59.7235 17.4541 59.3864 17.6402C58.9288 19.8779 62.228 19.6193 61.5417 17.8746" stroke="black" stroke-miterlimit="10"/>
<path id="Vector_49" d="M64.6144 17.2318C63.1599 17.4275 64.0076 19.2037 65.19 19.1602C66.2785 19.1191 66.8251 17.8214 65.7655 17.2318" stroke="black" stroke-miterlimit="10"/>
<path id="Vector_50" d="M69.4283 19.2955C70.2279 19.1022 71.0057 17.9978 70.0617 17.3768C69.2285 16.8283 68.0918 17.9229 68.5229 18.7494" stroke="black" stroke-miterlimit="10"/>
<path id="Vector_51" d="M118.415 33.3643C115.253 32.6273 111.152 32.9753 107.966 32.9753C102.608 32.9753 97.24 32.8013 91.8987 32.7844C83.7592 32.7578 75.5041 32.2576 67.3092 32.5911C64.7373 32.695 61.0673 33.6833 60.7735 30.2761C60.5423 27.5938 61.0119 24.6867 63.8463 24.3001C67.2032 23.8409 70.9912 24.4934 74.4204 24.4934C79.0417 24.4934 83.6099 24.4813 88.2071 24.6964C93.9071 24.9646 99.6482 24.4547 105.346 24.7302C108.556 24.8849 118.032 24.88 118.225 24.88" stroke="black" stroke-miterlimit="10"/>
<path id="Vector_52" d="M64.1738 26.7939H64.8071L65.1467 29.7589H65.2069L65.7318 26.7939H66.4543L66.972 29.7589H67.0322L67.379 26.7939H67.9859L67.497 30.3171H66.5843L66.1147 27.5865H66.0545L65.5777 30.3171H64.665L64.1762 26.7939H64.1738Z" fill="white"/>
<path id="Vector_53" d="M68.258 26.7939H68.8913L69.2309 29.7589H69.2911L69.8161 26.7939H70.5385L71.0563 29.7589H71.1165L71.4632 26.7939H72.0701L71.5812 30.3171H70.6686L70.199 27.5865H70.1388L69.6619 30.3171H68.7493L68.2604 26.7939H68.258Z" fill="white"/>
<path id="Vector_54" d="M72.3398 26.7939H72.9731L73.3127 29.7589H73.3729L73.8979 26.7939H74.6203L75.138 29.7589H75.1983L75.545 26.7939H76.1519L75.663 30.3171H74.7503L74.2807 27.5865H74.2205L73.7437 30.3171H72.831L72.3422 26.7939H72.3398Z" fill="white"/>
<path id="Vector_55" d="M78.3289 30.3872C78.1121 30.3872 77.958 30.3413 77.8689 30.2495C77.7798 30.1576 77.7365 30.0465 77.7365 29.916V29.7372C77.7365 29.6043 77.7798 29.4931 77.8689 29.4037C77.958 29.3119 78.1097 29.266 78.3289 29.266C78.548 29.266 78.6997 29.3119 78.7888 29.4037C78.8779 29.4955 78.9213 29.6067 78.9213 29.7372V29.916C78.9213 30.0489 78.8779 30.1601 78.7888 30.2495C78.6997 30.3413 78.548 30.3872 78.3289 30.3872Z" fill="white"/>
<path id="Vector_56" d="M61.349 64.5927C80.9369 63.2443 102.001 64.3027 121.011 64.3027V62.7441C120.862 57.1354 120.722 47.9068 120.722 42.2788C120.722 34.9036 120.722 27.5309 120.722 20.1558" stroke="white" stroke-miterlimit="10"/>
<path id="Vector_57" d="M64.6506 66.3278C81.0236 66.3278 97.4086 67.1373 113.777 66.3278C116.765 66.1803 120.707 66.0378 123.159 66.0378C123.159 55.6444 122.853 50.1324 122.87 39.8164C122.877 35.4884 122.355 24.1092 122.294 24.2058" stroke="white" stroke-miterlimit="10"/>
<path id="Vector_58" d="M104.149 48.697C103.381 48.639 102.567 49.0377 101.854 48.8492C101.271 48.6946 101.03 47.7884 100.053 47.7691C99.9564 47.4622 99.9612 46.8605 100.058 46.5632C100.927 46.1838 101.893 45.7658 102.348 44.9394C103.764 44.9104 105.026 46.9789 104.149 48.1557V48.6946V48.697Z" fill="#F7AF39"/>
<path id="Vector_59" d="M104.871 49.3905C103.424 48.9773 101.815 49.1175 100.342 48.8106C100.272 47.4283 100.149 45.9422 100.566 44.6276C101.577 45.0239 102.283 45.6788 102.218 46.6381C103.248 47.0779 104.12 47.6797 104.604 48.581C104.712 48.7816 104.874 49.1682 104.874 49.3905H104.871Z" fill="#A9DC76"/>
<path id="Vector_60" d="M68.6963 56.4781C67.249 56.0649 65.6403 56.205 64.1666 55.8982C64.0967 54.5159 63.9739 53.0298 64.3905 51.7152C65.4019 52.1115 66.1075 52.7664 66.0425 53.7257C67.0732 54.1655 67.9449 54.7672 68.429 55.6686C68.5373 55.8692 68.6987 56.2558 68.6987 56.4781H68.6963Z" fill="#AB9DF2"/>
<path id="Vector_61" d="M64.0197 42.1845C64.4314 40.7322 64.2918 39.118 64.5976 37.6391C65.9751 37.569 67.4561 37.4458 68.7661 37.8638C68.3712 38.8788 67.7186 39.5868 66.7625 39.5216C66.3243 40.5558 65.7246 41.4306 64.8264 41.9163C64.6265 42.0251 64.2412 42.187 64.0197 42.187V42.1845Z" fill="#A9DC76"/>
<path id="Vector_62" d="M69.491 42.4407C68.7228 42.3827 67.9088 42.7814 67.196 42.5929C66.6132 42.4383 66.3724 41.5321 65.3947 41.5128C65.2984 41.2059 65.3032 40.6042 65.3995 40.3069C66.2689 39.9275 67.2345 39.5095 67.6897 38.683C69.1057 38.654 70.3675 40.7226 69.491 41.8994V42.4383V42.4407Z" fill="#FF6188"/>
<path id="Vector_63" d="M90.1721 54.9678C88.8428 54.557 86.714 54.9847 86.0542 53.5372C87.292 52.6528 88.8982 51.215 90.5045 51.9399C90.5454 52.8389 90.8103 53.6846 90.7116 54.6053C90.6827 54.876 90.4467 54.8687 90.1745 54.9654L90.1721 54.9678Z" fill="#ABD377"/>
<path id="Vector_64" d="M90.8898 42.0154C89.2378 42.0178 87.0873 42.9361 85.5653 42.0202C86.1698 41.549 87.1595 41.4379 87.6652 40.8869C88.0915 40.4229 88.0481 39.814 88.3805 39.3137C89.1463 38.1587 89.5629 38.3979 90.7115 37.6995C90.7115 39.0794 90.8898 40.638 90.8898 42.0178V42.0154Z" fill="#ABD377"/>
<path id="Vector_65" d="M76.188 49.9294C75.7931 49.26 75.0682 48.8758 74.4662 48.3587C75.1934 46.0461 71.9834 46.3772 71.0057 45.3816C71.0996 45.2438 71.1478 45.0988 71.1983 44.9224C72.4987 44.8451 73.763 44.7122 75.1116 44.7122C76.477 44.7122 76.188 48.0953 76.188 49.2093V49.9294Z" fill="#ABD377"/>
<path id="Vector_66" d="M112.402 39.855C111.987 42.7234 108.457 39.7825 110.018 38.2626C109.615 38.3375 109.062 38.1466 108.647 38.207C108.965 36.5082 111.149 37.6319 112.404 37.6947C112.404 38.2336 112.481 39.3186 112.404 39.8526L112.402 39.855Z" fill="#ABD377"/>
<path id="Vector_67" d="M98.0588 42.3754C96.4164 43.243 94.2949 42.6582 92.5201 42.5229C92.9848 41.1382 92.6814 39.1978 92.6814 37.6995C96.0046 37.0157 93.7843 40.9497 97.163 39.4974C98.2779 39.6738 97.9649 41.4499 98.0588 42.3754Z" fill="#78DCE8"/>
<path id="Vector_68" d="M109.892 38.0572C110.629 38.9706 110.271 40.7492 109.534 41.6553C108.898 41.5176 108.236 41.4258 107.561 41.4765C107.561 40.3963 109.892 39.1373 109.892 38.0596V38.0572Z" fill="#81D1DE"/>
<path id="Vector_69" d="M98.0588 49.7506C96.6428 49.5669 95.0245 49.2601 93.5772 49.3905C92.8427 48.3635 93.3292 47.3607 93.2184 46.1524C94.1672 46.121 95.0245 46.411 95.877 46.1839C95.995 46.4158 96.0528 46.6212 96.0865 46.8726C96.5585 47.0175 96.9727 47.3317 97.4953 47.4428C97.6374 48.0349 97.8324 49.1779 98.0588 49.7506Z" fill="#81D1DE"/>
<path id="Vector_70" d="M68.6577 52.0898C68.795 52.7736 68.9178 53.5252 68.8359 54.2477C68.7203 55.2844 68.087 56.3887 66.8637 55.6879C66.6662 54.6875 68.4458 53.0322 68.6553 52.0898H68.6577Z" fill="#81D1DE"/>
<path id="Vector_71" d="M67.0443 39.6762C67.7113 40.7902 66.1436 41.2083 65.2695 40.7588C65.6451 40.0604 64.7927 38.0378 66.5073 38.9561C66.5675 39.1373 66.9479 39.5119 67.0443 39.6762Z" fill="#81D1DE"/>
<path id="Vector_72" d="M83.7183 49.5694C82.3023 49.5694 80.7876 49.9173 79.4149 49.7482C80.1494 48.8734 79.8363 45.773 79.7737 44.531C80.79 44.531 82.3432 44.531 83.3595 44.531C83.3595 46.0896 83.7183 48.0083 83.7183 49.5669V49.5694Z" fill="#81D1DE"/>
<path id="Vector_73" d="M112.58 56.5869C111.094 56.5869 108.797 56.234 107.561 56.7657C107.561 55.323 107.239 52.747 107.74 51.5485C108.802 50.9757 111.193 51.3696 112.58 51.3696C112.58 52.8389 113.134 55.2819 112.58 56.5869Z" fill="#81D1DE"/>
<path id="Vector_74" d="M85.6906 37.6971C87.1499 37.6198 88.0072 38.4825 88.2312 39.826C88.4672 39.8091 88.4696 39.8985 88.5587 40.0363C87.1957 40.4181 87.3088 41.897 86.0494 42.1942C85.4835 40.7346 85.6954 39.2364 85.6906 37.6971Z" fill="#FF6188"/>
<path id="Vector_75" d="M110.071 51.7297C110.372 53.5904 109.088 54.4168 107.381 54.4289C107.381 53.53 107.381 52.4498 107.381 51.5509C108.233 51.9254 109.271 51.534 110.071 51.7297Z" fill="#F06187"/>
<path id="Vector_76" d="M112.58 49.5694C111.152 49.1006 109.471 49.2093 107.918 49.2093C108.435 47.8222 107.829 46.2008 107.918 44.7122C109.36 44.1202 111.494 44.7122 113.117 44.7122C112.676 45.8069 112.486 48.32 112.58 49.5694Z" fill="#F06187"/>
<path id="Vector_77" d="M68.4795 49.7506C66.9263 49.7506 65.373 49.7506 63.8174 49.7506C64.116 48.1001 64.1039 46.0074 63.8174 44.3546C65.0311 44.1129 67.1261 44.5334 68.6577 44.5334C68.7613 46.2974 68.2724 48.0035 68.4795 49.7506Z" fill="#F06187"/>
<path id="Vector_78" d="M90.3503 49.5694C88.9825 49.1634 87.1354 49.9705 86.047 49.3905C85.6978 47.9165 85.8688 46.2443 85.8688 44.7122C87.1379 44.7122 89.8398 44.2434 90.8873 44.7122C90.8825 46.5802 89.7338 47.8585 90.3503 49.5694Z" fill="#F7AF39"/>
<path id="Vector_79" d="M105.052 56.5869C103.74 56.0746 101.849 56.408 100.39 56.408C100.465 54.8204 100.212 53.1675 100.212 51.5509C101.714 51.5315 103.482 52.0535 104.874 51.5509C105.274 53.1047 105.1 54.9388 105.052 56.5869Z" fill="#F6AF38"/>
<path id="Vector_80" d="M75.8292 56.9469C74.2952 56.6908 72.7275 56.7681 71.167 56.7681C71.2393 54.9775 71.3452 53.1893 71.3452 51.3721C72.9394 51.2923 74.5745 51.5533 76.1856 51.5509C76.0652 53.2158 76.3638 55.323 75.8268 56.9469H75.8292Z" fill="#F6AF38"/>
<path id="Vector_81" d="M67.4031 44.7122C67.4633 45.9567 67.6295 48.1919 66.6855 49.1368C66.3724 48.32 65.8137 45.4202 64.535 46.7179C64.0485 46.2056 63.9281 45.4492 63.9956 44.7122C65.0046 44.5696 66.5675 44.3304 67.4007 44.7122H67.4031Z" fill="#F6AF38"/>
<path id="Vector_82" d="M83.0006 45.0723C83.0488 45.6522 83.0055 46.2829 82.9693 46.8508C82.6587 46.6067 82.1554 46.3723 81.9218 45.9857C81.5052 47.0514 82.1457 48.8782 80.7105 49.3712C79.8026 48.3055 79.4607 46.9378 78.5191 45.9712C77.0911 44.502 81.7966 45.0723 83.0006 45.0723Z" fill="#F6AF38"/>
<path id="Vector_83" d="M105.589 42.3754C103.783 42.3754 101.606 42.6098 100.031 42.3754C100.031 40.9956 100.209 38.8981 100.209 37.5183C101.794 37.511 103.309 37.3636 104.871 37.3395C105.575 38.8063 105.64 40.725 105.589 42.3754Z" fill="#AB9DF2"/>
<path id="Vector_84" d="M83.1789 56.9469C81.7436 56.28 80.0723 56.7488 78.6973 56.2268C79.256 54.6851 78.8755 52.5054 78.8755 50.8308C80.489 50.8308 82.1024 51.0096 83.7159 51.0096C83.3811 53.1554 83.2631 54.7986 83.1789 56.9469Z" fill="#AB9DF2"/>
<path id="Vector_85" d="M76.3686 42.3754C74.6347 42.3754 72.9033 42.3754 71.1694 42.3754C71.1381 41.4403 71.4897 38.6202 72.9755 39.9783C72.4072 37.7382 73.881 37.8832 75.651 37.8783C76.4433 40.7878 76.1422 44.0597 76.0098 47.0538" fill="#F6AF38"/>
<path id="Vector_86" d="M103.976 42.7355C103.901 41.9308 103.862 41.2276 103.299 40.6404C103.176 40.7757 103.061 40.957 102.909 41.0681C102.442 40.5292 102.203 39.8768 101.967 39.1905C100.558 39.4805 99.588 41.1213 100.031 42.3779C101.194 42.3779 102.877 42.3754 103.976 42.7379V42.7355Z" fill="#F7AF39"/>
<path id="Vector_87" d="M93.399 52.0898C94.0444 52.242 94.4562 52.4861 94.502 53.1409C95.7927 52.6891 97.1389 53.4309 96.4213 54.9412C95.7373 55.2602 95.039 55.1539 94.6055 54.4821C94.1335 55.2457 94.0661 56.7536 93.2208 56.408C93.2425 55.3738 93.7482 52.834 93.399 52.0898Z" fill="#F5AF37"/>
<path id="Vector_88" d="M83.3595 37.8784C83.3595 39.2896 83.3522 40.6573 83.5377 42.0154C82.808 43.3541 79.5498 42.7355 78.1603 42.7355C78.6082 41.0947 80.6431 41.0947 81.3872 39.8575C80.725 38.9537 79.8219 38.2263 78.6973 37.8784C80.3589 37.5787 81.7147 37.9678 83.3595 37.8784Z" fill="#FF6188"/>
<path id="Vector_89" d="M103.976 47.2326C103.212 47.8899 102.088 49.0136 100.956 48.8251C101.026 48.0735 100.956 47.264 100.445 46.6816C101.264 46.7034 102.083 46.6937 102.902 46.6937C103.205 46.9136 103.703 46.991 103.978 47.2326H103.976Z" fill="#F06187"/>
<path id="Vector_90" d="M76.0098 51.5485C76.6239 53.2086 75.3693 54.3903 74.2182 52.7905C73.2694 53.9625 74.052 55.5526 71.7089 55.1466C71.5692 53.9384 71.5283 52.184 71.5307 51.3696C72.8214 51.302 74.7022 51.5436 76.0122 51.5485H76.0098Z" fill="#F06187"/>
<path id="Vector_91" d="M73.6787 44.5334C73.9557 45.5121 73.9677 46.5415 72.9804 47.0924C73.3777 47.7086 73.4235 48.5423 73.1417 49.2117C72.3253 49.4654 71.4849 49.3857 70.6324 49.3905C70.6324 47.7401 70.4301 45.8939 70.8106 44.3546C71.6463 44.3546 72.8431 44.5334 73.6787 44.5334Z" fill="#F06187"/>
<path id="Vector_92" d="M76.3686 37.5183C76.0869 40.0314 73.0911 40.029 70.9912 40.0363C71.3043 39.1035 71.1694 37.9968 71.1694 36.977C72.4987 37.1969 75.008 37.6053 76.3686 37.5159V37.5183Z" fill="#F06187"/>
<path id="Vector_93" d="M90.3503 44.7122C89.6471 45.5435 88.8163 46.4617 88.431 47.3993C87.906 46.5922 87.7013 45.6111 87.3353 44.7678C87.2703 44.8427 87.2655 44.92 87.3185 45.0022C88.2311 44.6228 89.1872 44.4585 90.1697 44.5334C90.2901 44.9949 90.2251 44.1951 90.3479 44.7122H90.3503Z" fill="#AB9DF2"/>
<path id="Vector_94" d="M107.92 45.9736C108.751 46.1742 109.69 46.5101 110.056 47.2423C109.444 47.6821 108.671 47.844 107.92 47.7715C107.976 47.3293 108.096 46.3723 107.92 45.9736Z" fill="#A9DC76"/>
<path id="Vector_95" d="M87.304 51.9085C87.5015 52.9114 87.6267 53.965 87.8242 54.9485C87.6556 54.818 87.3185 54.7455 87.1234 54.586C86.8104 55.2022 86.3191 55.4994 85.6882 55.1466C85.7411 53.9529 85.5364 52.8993 85.7146 51.7563C86.2276 51.662 86.8248 51.6838 87.3016 51.9085H87.304Z" fill="#78DCE8"/>
<path id="Vector_96" d="M80.3108 56.5869C80.2795 55.0282 80.1326 52.7398 80.1326 51.5509C79.5353 51.5509 78.9381 51.3721 78.3409 51.3721C78.2783 53.1458 78.4685 54.6802 78.365 56.3766C78.9574 56.5144 79.7376 56.4685 80.3132 56.5869H80.3108Z" fill="#80D1DF"/>
<path id="Vector_97" d="M102.721 37.5183C102.721 38.77 102.755 40.0387 102.694 41.2808C101.498 40.6936 101.206 39.0842 100.238 38.381C100.327 38.1635 100.351 37.9291 100.39 37.6971C101.047 37.6971 102.064 37.5183 102.721 37.5183Z" fill="#78DCE8"/>
<path id="Vector_98" d="M107.289 37.2984C109.172 37.2984 111.092 37.2211 112.965 37.3201C113.165 38.9078 112.708 40.6307 112.708 42.3199C111.075 42.3199 108.833 42.547 107.566 42.46C107.566 41.6602 107.424 39.9251 107.342 38.5985" stroke="black" stroke-miterlimit="10"/>
<path id="Vector_99" d="M112.744 56.4443C112.744 54.7407 112.859 53.0709 112.859 51.3503C111.048 51.3551 109.24 51.7877 107.434 51.5267C107.434 52.5851 107.489 53.6363 107.491 54.6899C107.491 55.1829 107.361 56.077 107.549 56.5023C108.794 56.5023 109.921 56.5023 111.166 56.5023" stroke="black" stroke-miterlimit="10"/>
<path id="Vector_100" d="M112.655 44.3376C110.957 44.3376 109.293 44.2216 107.578 44.2216C107.583 46.0389 108.014 47.8536 107.754 49.666C108.809 49.666 109.856 49.6104 110.906 49.608C111.398 49.608 112.289 49.7385 112.712 49.55C112.712 48.3007 112.712 47.1698 112.712 45.9204" stroke="black" stroke-miterlimit="10"/>
<path id="Vector_101" d="M105.719 42.4504C103.836 42.4504 101.917 42.5277 100.043 42.4286C99.8432 40.841 100.301 39.118 100.301 37.4289C101.933 37.4289 104.175 37.2017 105.442 37.2887C105.442 38.0886 105.584 39.8236 105.666 41.1503" stroke="black" stroke-miterlimit="10"/>
<path id="Vector_102" d="M100.265 44.4029C100.265 46.1065 100.149 47.7763 100.149 49.4969C101.96 49.492 103.768 49.0595 105.575 49.3205C105.575 48.262 105.519 47.2109 105.517 46.1573C105.517 45.6643 105.647 44.7702 105.459 44.3449C104.214 44.3449 103.087 44.3449 101.842 44.3449" stroke="black" stroke-miterlimit="10"/>
<path id="Vector_103" d="M100.354 56.5119C102.051 56.5119 103.716 56.6279 105.43 56.6279C105.425 54.8107 104.994 52.9959 105.254 51.1836C104.2 51.1836 103.152 51.2392 102.102 51.2416C101.611 51.2416 100.72 51.1111 100.296 51.2996C100.296 52.5489 100.296 53.6798 100.296 54.9291" stroke="black" stroke-miterlimit="10"/>
<path id="Vector_104" d="M91.1233 37.2984C89.2402 37.2984 87.3209 37.2211 85.4473 37.3201C85.2474 38.9078 85.705 40.6307 85.705 42.3199C87.3377 42.3199 89.5797 42.547 90.8464 42.46C90.8464 41.6602 90.9885 39.9251 91.0703 38.5985" stroke="black" stroke-miterlimit="10"/>
<path id="Vector_105" d="M85.6713 56.4443C85.6713 54.7407 85.5557 53.0709 85.5557 51.3503C87.3666 51.3551 89.1751 51.7877 90.9812 51.5267C90.9812 52.5851 90.9259 53.6363 90.9234 54.6899C90.9234 55.1829 91.0535 56.077 90.8657 56.5023H87.2486" stroke="black" stroke-miterlimit="10"/>
<path id="Vector_106" d="M85.758 44.3376C87.4557 44.3376 89.1197 44.2216 90.8343 44.2216C90.8295 46.0389 90.3985 47.8536 90.6585 49.666C89.6038 49.666 88.5562 49.6104 87.5063 49.608C87.015 49.608 86.124 49.7385 85.7002 49.55C85.7002 48.3007 85.7002 47.1698 85.7002 45.9204" stroke="black" stroke-miterlimit="10"/>
<path id="Vector_107" d="M92.6934 42.4504C94.5766 42.4504 96.4959 42.5277 98.3694 42.4286C98.5693 40.841 98.1117 39.118 98.1117 37.4289C96.479 37.4289 94.237 37.2017 92.9704 37.2887C92.9704 38.0886 92.8283 39.8236 92.7464 41.1503" stroke="black" stroke-miterlimit="10"/>
<path id="Vector_108" d="M98.1479 44.4029C98.1479 46.1065 98.2635 47.7763 98.2635 49.4969C96.4525 49.492 94.644 49.0595 92.8379 49.3205C92.8379 48.262 92.8933 47.2109 92.8957 46.1573C92.8957 45.6643 92.7657 44.7702 92.9535 44.3449H96.5705" stroke="black" stroke-miterlimit="10"/>
<path id="Vector_109" d="M93.0426 51.2996C94.7403 51.2996 96.4044 51.1836 98.119 51.1836C98.1142 53.0008 97.6831 54.8156 97.9432 56.6279C96.8884 56.6279 95.8409 56.5724 94.7909 56.5699C94.2996 56.5699 93.4086 56.7004 92.9848 56.5119C92.9848 55.2626 92.9848 54.1317 92.9848 52.8824" stroke="black" stroke-miterlimit="10"/>
<path id="Vector_110" d="M69.2574 37.2984C67.3742 37.2984 65.4549 37.2211 63.5814 37.3201C63.3815 38.9078 63.8391 40.6307 63.8391 42.3199C65.4718 42.3199 67.7138 42.547 68.9804 42.46C68.9804 41.6602 69.1225 39.9251 69.2044 38.5985" stroke="black" stroke-miterlimit="10"/>
<path id="Vector_111" d="M63.8029 56.4443C63.8029 54.7407 63.6873 53.0709 63.6873 51.3503C65.4982 51.3551 67.3068 51.7877 69.1129 51.5267C69.1129 52.5851 69.0575 53.6363 69.0551 54.6899C69.0551 55.1829 69.1851 56.077 68.9973 56.5023H65.3802" stroke="black" stroke-miterlimit="10"/>
<path id="Vector_112" d="M63.8896 44.3376C65.5874 44.3376 67.2514 44.2216 68.966 44.2216C68.9612 46.0389 68.5301 47.8536 68.7902 49.666C67.7354 49.666 66.6879 49.6104 65.6379 49.608C65.1467 49.608 64.2557 49.7385 63.8318 49.55C63.8318 48.3007 63.8318 47.1698 63.8318 45.9204" stroke="black" stroke-miterlimit="10"/>
<path id="Vector_113" d="M70.8275 42.4504C72.7107 42.4504 74.6299 42.5277 76.5035 42.4286C76.7034 40.841 76.2458 39.118 76.2458 37.4289C74.6131 37.4289 72.3711 37.2017 71.1044 37.2887C71.1044 38.0886 70.9623 39.8236 70.8805 41.1503" stroke="black" stroke-miterlimit="10"/>
<path id="Vector_114" d="M76.2795 44.4029C76.2795 46.1065 76.3951 47.7763 76.3951 49.4969C74.5842 49.492 72.7757 49.0595 70.9695 49.3205C70.9695 48.262 71.0249 47.2109 71.0273 46.1573C71.0273 45.6643 70.8973 44.7702 71.0851 44.3449H74.7022" stroke="black" stroke-miterlimit="10"/>
<path id="Vector_115" d="M76.1928 56.5119C74.4951 56.5119 72.8311 56.6279 71.1165 56.6279C71.1213 54.8107 71.5523 52.9959 71.2923 51.1836C72.347 51.1836 73.3946 51.2392 74.4445 51.2416C74.9358 51.2416 75.8268 51.1111 76.2506 51.2996V54.9291" stroke="black" stroke-miterlimit="10"/>
<path id="Vector_116" d="M83.8507 42.4504C81.9676 42.4504 80.0483 42.5277 78.1747 42.4286C77.9749 40.841 78.4324 39.118 78.4324 37.4289C80.0651 37.4289 82.3071 37.2017 83.5738 37.2887C83.5738 38.0886 83.7159 39.8236 83.7978 41.1503" stroke="black" stroke-miterlimit="10"/>
<path id="Vector_117" d="M78.3987 44.4029C78.3987 46.1065 78.2831 47.7763 78.2831 49.4969C80.094 49.492 81.9025 49.0595 83.7086 49.3205C83.7086 48.262 83.6532 47.2109 83.6508 46.1573C83.6508 45.6643 83.7809 44.7702 83.593 44.3449C82.348 44.3449 81.221 44.3449 79.976 44.3449" stroke="black" stroke-miterlimit="10"/>
<path id="Vector_118" d="M83.5039 51.2996C81.8062 51.2996 80.1422 51.1836 78.4276 51.1836C78.4324 53.0008 78.8635 54.8156 78.6034 56.6279C79.6581 56.6279 80.7057 56.5724 81.7556 56.5699C82.2469 56.5699 83.1379 56.7004 83.5617 56.5119C83.5617 55.2626 83.5617 54.1317 83.5617 52.8824" stroke="black" stroke-miterlimit="10"/>
</g>
</g>
<defs>
<clipPath id="clip0_132_1524">
<rect width="171" height="107" fill="white" transform="translate(0.5 0.5)"/>
</clipPath>
</defs>
</svg>
