<svg width="166" height="170" viewBox="0 0 166 170" fill="none" xmlns="http://www.w3.org/2000/svg">
<g id="Frame" clip-path="url(#clip0_153_9337)">
<g id="Layer_4">
<path id="Vector" d="M135.42 18.9C122.33 7.47999 99.3602 -4.87001 83.4702 1.94999C74.4102 5.83999 63.7002 4.61999 54.3602 7.87999C46.8502 10.5 39.4302 15.48 32.6502 19.71C18.3502 28.62 8.95017 39.89 5.52017 56.14C-1.40983 88.96 5.64017 127.53 31.5202 150.18C42.8502 160.1 61.4902 169.62 76.7002 167.97C111.57 164.2 144.46 160.06 160.25 121.41C172.99 90.2 162.12 42.16 135.43 18.89L135.42 18.9ZM98.1502 91.15C86.7402 101.82 71.6802 111.37 62.0102 122.8C55.4002 112.24 45.2902 102.8 38.2902 92.31C42.7602 88.98 45.4402 83.32 49.5802 81.02C54.8702 87.38 63.9402 94.78 67.6502 100.22C78.3502 92.46 84.9802 83.44 94.8102 74.47C103.33 66.7 114.12 59.98 119.6 49.4C124.54 53.04 128.32 58.77 132.02 62.95C120.22 71.58 109.02 80.97 98.1402 91.16L98.1502 91.15Z" fill="#A9DC76"/>
</g>
<g id="Layer_2">
<path id="Vector_2" d="M12.02 82.16C12.02 116.7 25.23 144.4 61.38 155.61C74.3 159.62 93.79 161.7 106.92 157.33C114.95 154.66 129.25 147.48 134.59 141.26C140.77 134.06 145.65 122.49 149.64 113.92C155.06 102.31 152.51 85.89 152.51 73.28C152.51 59.5 149.61 52.79 142.25 40.52C136.03 30.16 125.26 27.21 114.51 22.34C99.48 15.52 86.69 11.76 69.47 13.78C47.46 16.35 17.99 37.61 14.31 59.99" stroke="black" stroke-miterlimit="10"/>
<path id="Vector_3" d="M151.18 45.04C146.53 34.46 140.67 22.5 130.52 15.46C118.97 7.46002 99.3501 3.74002 85.4101 3.68002C56.7201 3.55002 22.5001 16.06 8.7501 42.64C0.440102 58.7 0.000102222 76.78 1.8101 94.49C4.6901 122.63 18.6201 143.11 42.3101 158.51C58.7301 169.18 77.8701 169.02 96.9801 168.2C113.22 167.51 127.78 159.17 140.88 149.75C153.88 140.4 155.58 122.3 159.91 108.03C164.24 93.76 163.21 81.64 160.7 68.08" stroke="black" stroke-miterlimit="10"/>
<path id="Vector_4" d="M75.77 117.31C96.07 99.81 112.02 78.72 133.5 64.06C130.04 60.06 125.03 55.31 121.11 51.67C111.92 59.66 106.7 65.61 97.87 74.91C90.19 83 77.4 95.09 68.44 101.24C65.37 95.99 54.2 85.17 49.85 80.33C46.38 84.39 42.09 89.06 38.23 92.72C45.59 101.81 67.66 125.25 66.89 124.48" stroke="black" stroke-miterlimit="10"/>
</g>
</g>
<defs>
<clipPath id="clip0_153_9337">
<rect width="165.12" height="169.04" fill="white" transform="translate(0.439941)"/>
</clipPath>
</defs>
</svg>
